<svg xmlns="http://www.w3.org/2000/svg" width="1024" height="1024" viewBox="0 0 1024 1024" version="1.1">
	<rect x="0" y="0" width="100%" height="100%" fill="white" />
	<path d="M 898.941 82.703 C 895.421 85.665, 893 90.487, 893 94.535 C 893 101.796, 840.648 146.220, 800.500 173.028 C 796.650 175.599, 790.640 179.998, 787.144 182.805 C 781.884 187.027, 780.298 187.810, 777.948 187.340 C 775.539 186.858, 774.814 187.258, 773.153 189.988 C 771.212 193.180, 766.533 206.326, 765.659 211.042 C 762.720 226.903, 759.182 241.161, 757.852 242.500 C 757.193 243.163, 757.049 242.658, 757.423 241 C 760.091 229.177, 761.956 219.538, 762.550 214.500 C 763.329 207.889, 765.686 201, 767.168 201 C 767.690 201, 767.826 200.528, 767.470 199.951 C 765.468 196.712, 759.995 207.705, 759.358 216.247 C 758.727 224.701, 754.291 246.124, 752.899 247.440 C 752.073 248.221, 751.894 245.058, 752.220 235.410 C 752.560 225.337, 753.046 221.772, 754.331 219.938 C 756.150 217.341, 756.537 215.550, 755.085 216.447 C 754.582 216.758, 753.971 216.447, 753.727 215.756 C 752.995 213.684, 749.007 227.849, 748.912 232.855 C 748.786 239.577, 747.590 247.666, 746.895 246.500 C 746.568 245.950, 746.600 238.975, 746.967 231 C 747.525 218.895, 747.996 215.804, 749.818 212.290 C 752.549 207.021, 752.567 206.177, 749.898 208.593 C 746.942 211.267, 745.475 214.445, 743.477 222.500 C 742.522 226.350, 740.727 231.525, 739.487 234 C 738.248 236.475, 736.690 241.133, 736.025 244.352 C 734.921 249.696, 735.012 252.166, 736.609 260.230 C 737.061 262.509, 736.274 263.888, 731.849 268.566 C 724.817 276.001, 723.624 276.577, 720.224 274.176 C 711.454 267.985, 696.451 262.550, 677.862 258.829 C 668.722 256.999, 663.273 256.561, 650 256.591 C 610.508 256.678, 578.414 264.931, 537.465 285.529 C 525.168 291.714, 514.858 296.525, 514.554 296.221 C 514.249 295.916, 514 281.117, 514 263.333 C 514 245.550, 513.626 231, 513.169 231 C 512.712 231, 511.699 232.203, 510.919 233.673 C 509.760 235.856, 509.564 241.940, 509.847 266.923 C 510.082 287.587, 510.558 297.944, 511.318 298.868 C 512.194 299.935, 511.787 300.761, 509.471 302.620 C 506.524 304.985, 503.183 306.516, 502.487 305.821 C 502.288 305.622, 501.760 292.012, 501.313 275.578 L 500.500 245.697 496.786 244.414 L 493.073 243.130 493.517 250.815 C 493.762 255.042, 494.186 269.164, 494.461 282.198 C 495.016 308.519, 495.179 307.774, 488.224 310.680 C 485.178 311.952, 484.568 311.896, 481.618 310.073 C 474.367 305.592, 474.740 307.799, 474.890 270.287 L 475.024 236.503 479.936 232.675 L 484.849 228.847 491.174 233.783 C 500.541 241.091, 501.820 241.624, 504.227 239.218 C 505.559 237.886, 505.993 236.553, 505.550 235.158 C 504.845 232.937, 488.953 220, 486.930 220 C 485.190 220, 472.558 230.408, 470.088 233.876 C 468.090 236.682, 468 238.018, 468 264.823 C 468 280.230, 467.727 293.548, 467.393 294.418 C 466.444 296.892, 465.237 296.301, 463.421 292.474 C 457.328 279.634, 418.663 260.145, 399 260.002 C 395.722 259.978, 394.907 259.706, 396 259 C 396.825 258.467, 397.050 258.032, 396.500 258.033 C 395.244 258.035, 391.694 261.777, 390.111 264.767 C 389.147 266.589, 389.196 267.441, 390.360 269.103 C 391.792 271.149, 391.824 271.140, 393.163 268.336 C 394.415 265.716, 395.005 265.477, 400.910 265.198 C 412.058 264.672, 428.664 271.009, 445.839 282.343 C 456.544 289.407, 463.808 295, 462.277 295 C 461.729 295, 455.254 292.111, 447.890 288.579 C 433.333 281.599, 423.442 278.108, 409.500 275.030 C 392.362 271.247, 391.242 273.026, 408 277.413 C 426.664 282.300, 444.958 289.954, 458.741 298.644 C 461.908 300.642, 470.173 306.489, 477.106 311.638 C 484.040 316.787, 490.039 321, 490.438 321 C 490.837 321, 498.829 316.018, 508.199 309.928 C 528.590 296.676, 540.966 289.668, 554.804 283.536 C 587.013 269.264, 617.534 262.819, 653.500 262.697 C 669.874 262.641, 673.879 262.949, 682.479 264.920 C 694.622 267.704, 704.817 271.261, 711.537 275.057 L 716.574 277.903 704.765 289.952 C 698.269 296.578, 692.504 302, 691.953 302 C 690.715 302, 678.181 295.676, 675.660 293.779 C 673.989 292.522, 673.966 292.273, 675.410 291.075 C 676.284 290.349, 677 289.451, 677 289.078 C 677 288.072, 669.599 289.104, 668.891 290.209 C 668.529 290.776, 663.271 289.929, 655.891 288.116 C 638.505 283.845, 628.427 282.623, 616.075 283.289 C 593.910 284.483, 566.287 293.298, 542.500 306.768 C 526.154 316.024, 518.624 320.858, 508.186 328.797 L 495.754 338.253 492.627 336.757 C 490.907 335.934, 485.900 332.253, 481.500 328.578 C 472.730 321.252, 459.060 311.908, 453.831 309.666 C 451.999 308.880, 449.033 306.902, 447.240 305.270 C 442.280 300.756, 426.250 292.252, 410.575 285.818 C 391.267 277.893, 387.882 276.041, 385.659 272.192 C 383.804 268.980, 383.801 268.768, 385.559 264.870 C 386.555 262.661, 388.286 260.212, 389.407 259.427 C 390.877 258.398, 391.027 258, 389.945 258 C 385.677 258, 381 264.467, 381 270.369 C 381 277.456, 381.657 277.917, 401.345 284.645 C 408.580 287.118, 418.474 290.926, 423.332 293.107 C 433.480 297.664, 445.237 304.808, 444.513 305.979 C 444.243 306.416, 447.054 309.413, 450.760 312.637 C 454.466 315.862, 463.714 324.510, 471.311 331.855 C 478.908 339.199, 485.367 344.966, 485.664 344.669 C 486.551 343.783, 483.486 340.027, 473.690 330 C 457.995 313.932, 458.589 313.602, 476.165 328.624 C 480.749 332.542, 486.849 337.185, 489.721 338.942 L 494.942 342.136 499.401 339.068 C 501.854 337.381, 504.229 336, 504.680 335.999 C 505.131 335.999, 508.108 333.951, 511.295 331.449 L 517.090 326.900 510.577 335.436 C 506.223 341.143, 503.533 345.800, 502.461 349.486 C 501.579 352.519, 500.422 355, 499.889 355 C 499.356 355, 497.026 354.009, 494.710 352.798 C 492.395 351.587, 490.154 350.690, 489.730 350.804 C 489.307 350.919, 483.682 347.492, 477.230 343.188 C 447.456 323.326, 432.388 315.080, 415.644 309.483 C 401.704 304.823, 377.770 300.095, 364.250 299.330 C 354.135 298.758, 353 298.505, 353 296.816 C 353 294.318, 350.470 293.465, 347.320 294.900 C 345.172 295.879, 344.559 295.781, 343.457 294.282 C 342.271 292.669, 342.543 292.423, 346.324 291.688 C 353.071 290.375, 375.546 291.631, 386.420 293.929 C 397.798 296.333, 402.888 297.859, 423 304.895 C 434.166 308.801, 436.925 309.486, 435 307.871 C 428.236 302.197, 408.892 294.653, 391.259 290.811 C 383.597 289.142, 377.846 288.665, 364.500 288.593 C 348.707 288.507, 346.849 288.695, 338.325 291.246 C 327.017 294.631, 323.583 295.916, 324.199 296.532 C 324.461 296.795, 325.986 296.596, 327.588 296.090 C 333.591 294.196, 336.950 293.967, 336.365 295.492 C 335.732 297.141, 339.887 298.524, 343.015 297.706 C 345.412 297.080, 346.810 298.873, 344.878 300.096 C 343.910 300.710, 344.392 300.987, 346.500 301.028 C 348.966 301.076, 348.191 301.645, 342.143 304.228 C 338.043 305.978, 332.730 309.249, 330.143 311.616 L 325.500 315.862 337.500 309.746 C 344.100 306.382, 351.525 303.314, 354 302.927 C 356.475 302.540, 365.396 302.850, 373.825 303.616 C 387.159 304.828, 390.993 305.609, 403.325 309.631 C 418.929 314.720, 432.292 320.964, 441.500 327.469 C 444.800 329.800, 453.800 334.903, 461.500 338.807 C 476.988 346.661, 485.704 351.715, 488.907 354.699 C 490.069 355.782, 493.279 357.726, 496.040 359.019 C 502.187 361.898, 502.654 361.562, 506.924 351.193 C 511.218 340.766, 522.849 325.097, 530.038 320.055 C 543.957 310.291, 575.041 296.057, 592.107 291.633 C 613.752 286.021, 638.979 285.545, 657.500 290.398 C 667.645 293.057, 688.132 302.429, 688.792 304.713 C 688.984 305.380, 687.413 307.779, 685.299 310.045 C 681.904 313.684, 681.167 314.050, 678.978 313.177 C 671.179 310.069, 639.870 306.016, 623.289 305.970 C 610.476 305.933, 611.230 304.907, 625.860 302.469 C 633.411 301.211, 639.704 300.868, 649.067 301.206 C 656.133 301.462, 661.710 301.340, 661.461 300.936 C 660.511 299.401, 645.491 296.828, 637.668 296.862 C 622.814 296.925, 604.004 302.274, 608.203 305.240 C 609.067 305.851, 608.531 306, 606.595 305.687 C 599.609 304.559, 554.718 325.432, 546.370 333.690 C 543.344 336.684, 538.499 346, 539.968 346 C 540.451 346, 546.506 343.531, 553.426 340.513 C 570.593 333.026, 578.048 331.148, 597 329.539 C 608.148 328.593, 626.181 332.291, 642.788 338.930 C 651.672 342.481, 652.649 342.679, 654.250 341.251 C 657.815 338.071, 656.444 336.317, 647.781 332.976 C 632.620 327.129, 616.604 324.159, 598.789 323.890 L 591.500 323.780 599 321.859 C 613.763 318.079, 629.322 319.379, 652.500 326.328 C 658.756 328.204, 661.010 328.495, 662.837 327.663 C 665.046 326.658, 665.075 326.528, 663.367 325.279 C 660.289 323.029, 640.906 317.219, 632.678 316.082 C 628.375 315.487, 622.107 315, 618.749 315 C 612.900 315, 606 313.338, 606 311.929 C 606 311.561, 608.056 310.684, 610.569 309.981 C 619.407 307.506, 645.844 310.474, 663.475 315.920 C 667.180 317.064, 671.738 318, 673.605 318 C 675.472 318, 677 318.369, 677 318.821 C 677 319.272, 673.288 323.668, 668.750 328.590 C 664.212 333.512, 654.461 344.505, 647.080 353.019 C 627.754 375.312, 622.254 380.775, 615.841 384.048 C 607.841 388.132, 598.974 396.712, 589.377 409.659 C 584.827 415.796, 580.519 421.194, 579.802 421.655 C 579.086 422.116, 575.014 423.003, 570.754 423.625 C 561.191 425.022, 557.043 427.859, 553.790 435.231 C 552.531 438.087, 548.476 446.621, 544.781 454.197 C 541.085 461.773, 533.722 478.666, 528.419 491.736 C 523.116 504.806, 517.906 517.210, 516.843 519.299 L 514.909 523.098 518.205 521.398 C 524.054 518.379, 541.523 507.350, 555.691 497.730 C 563.286 492.574, 572.425 486.676, 576 484.625 C 579.575 482.574, 584.029 479.794, 585.898 478.448 C 588.550 476.538, 590.542 476, 594.970 476 C 603.492 476, 609.103 473.666, 614.529 467.865 C 617.100 465.117, 619.494 463.161, 619.851 463.518 C 620.208 463.874, 620.499 470.541, 620.497 478.333 C 620.494 490.139, 620.110 493.833, 618.188 500.500 C 614.159 514.482, 607.273 526.910, 596 540.545 C 590.567 547.117, 562.084 574.211, 546.430 587.698 C 534.628 597.867, 509.223 615, 505.946 615 C 505.426 615, 504.993 613.538, 504.984 611.750 C 504.976 609.962, 504.335 605.805, 503.560 602.512 C 502.144 596.492, 502.536 595.058, 505.605 595.015 C 507.022 594.996, 514.312 587.132, 524.700 574.417 C 533.388 563.782, 541.593 556.062, 554.250 546.610 C 561.041 541.539, 563.425 539, 561.396 539 C 561.064 539, 557.802 540.582, 554.146 542.516 C 543.255 548.277, 528.348 562.544, 516.514 578.531 C 510.594 586.529, 505.724 591, 502.932 591 C 501.841 591, 500.047 589.494, 498.759 587.497 C 497.400 585.389, 495.816 584.095, 494.784 584.247 C 492.084 584.645, 474 562.245, 474 558.502 C 474 557.293, 474.550 557.040, 476.104 557.533 C 478.172 558.189, 478.169 558.147, 475.912 555.094 C 474.429 553.089, 473.030 552.173, 471.964 552.511 C 470.795 552.882, 469.096 551.299, 466.134 547.076 C 462.094 541.316, 455.630 534.990, 451.500 532.752 C 449.879 531.874, 450.014 532.316, 452.216 535.085 C 457.069 541.187, 466 554.692, 466 555.929 C 466 558.195, 457.489 554.422, 447.822 547.871 C 436.055 539.897, 412.568 516.029, 408.405 507.813 C 405.125 501.339, 405.313 500.286, 410 498.882 C 415.348 497.279, 415.077 496.124, 409.500 496.753 C 405.463 497.208, 405 497.049, 405 495.207 C 405 490.925, 412.434 483.770, 419.309 481.434 C 427.788 478.553, 436.022 482.073, 436.209 488.657 C 436.318 492.469, 432.197 499.815, 427.943 503.395 C 425.433 505.507, 425.201 506, 426.720 506 C 429.047 506, 435.515 499.472, 436.940 495.685 C 440.263 486.857, 436.393 479.781, 427.514 478.450 C 417.954 477.016, 406.433 483.211, 401.449 492.465 C 399.753 495.614, 399.106 495.999, 395.523 495.990 C 380.273 495.953, 365.373 476.051, 364.866 455.040 L 364.733 449.500 363.977 454.500 C 362.147 466.614, 366.421 480.548, 374.924 490.186 C 379.543 495.423, 389.564 500.991, 394.410 501.015 C 398.684 501.036, 399.301 501.612, 402.973 509 C 405.467 514.020, 408.972 518.233, 418.362 527.500 C 432.965 541.912, 444.721 550.487, 459.556 557.545 C 469.254 562.159, 471.114 563.461, 474.698 568.152 C 476.945 571.094, 482.456 577.550, 486.945 582.500 C 496.963 593.547, 501.712 601.700, 502.618 609.406 L 503.284 615.073 494.797 610.171 C 482.844 603.268, 473.138 596.559, 461.089 586.871 C 455.363 582.267, 446.029 574.830, 440.348 570.344 C 398.200 537.066, 371.047 507.168, 360.708 482.655 C 354.629 468.241, 356.208 450.792, 365.608 428.500 C 371.358 414.867, 378.160 405.522, 386.902 399.250 C 395.329 393.204, 395.100 392.368, 386.441 397.567 C 378.992 402.040, 375.940 404.907, 370.375 412.660 C 357.621 430.428, 350.159 460.434, 354.395 476.918 C 361.472 504.453, 396.294 542.936, 455.500 588.653 C 472.116 601.483, 481.197 607.555, 492.848 613.628 C 503.405 619.130, 504 619.980, 504 629.565 C 504 633.188, 504.437 636, 505 636 C 505.592 636, 506 632.368, 506 627.105 L 506 618.209 512.750 614.977 C 533.365 605.107, 557.877 584.963, 602.009 541.623 C 617.829 526.087, 625.135 518.119, 629.634 511.500 C 637.252 500.288, 647.144 480.669, 651.038 469.045 C 656.495 452.759, 656.793 434.909, 651.852 420.283 C 649.416 413.071, 644.007 403.563, 642.500 403.844 C 641.950 403.947, 640.095 407.823, 638.378 412.458 C 634.480 422.984, 631.489 428.111, 623.578 437.830 C 617.982 444.705, 617.270 446.091, 616.751 451.125 C 615.394 464.272, 607.338 472, 594.990 472 C 589.063 472, 588.725 472.145, 583.690 476.851 C 576.477 483.593, 557 494.610, 557 491.949 C 557 491.427, 557.365 491, 557.811 491 C 558.258 491, 559.498 490.213, 560.568 489.250 C 561.637 488.288, 565.660 484.997, 569.506 481.939 C 587.742 467.438, 587.630 467.511, 590.812 467.940 C 594.244 468.401, 603.281 465.579, 607.004 462.882 C 613.149 458.431, 615.935 449.484, 612.927 443.863 C 612.053 442.230, 612.335 441.268, 614.449 438.679 C 624.206 426.731, 628.713 419.709, 635.426 406 C 640.727 395.174, 644.513 388.841, 647.982 385 L 652.948 379.500 654.949 382 C 659.520 387.709, 669.079 408.702, 671.514 418.378 C 677.374 441.666, 672.856 472.912, 660.025 497.833 C 657.811 502.133, 656 506.180, 656 506.826 C 656 507.472, 655.633 508, 655.184 508 C 654.735 508, 653.371 509.774, 652.152 511.943 C 650.934 514.111, 649.050 516.167, 647.967 516.510 C 645.578 517.269, 643.636 520.610, 644.411 522.629 C 644.751 523.516, 643.420 525.674, 641.067 528.051 C 637.085 532.073, 634.200 533.647, 637.506 529.994 C 638.504 528.890, 639.053 527.719, 638.724 527.391 C 638.396 527.063, 631.686 533.195, 623.814 541.019 C 607.885 556.848, 598.792 564.727, 580.101 578.894 C 573.131 584.177, 560.244 594.433, 551.464 601.684 C 542.684 608.936, 528.591 620.089, 520.148 626.469 C 507.953 635.684, 504.357 637.931, 502.662 637.393 C 501.489 637.020, 493.849 632.509, 485.684 627.366 C 434.760 595.294, 380.722 547.021, 355.004 510.627 C 348.980 502.101, 346.434 499.225, 345.555 499.954 C 344.653 500.703, 344.462 500.211, 344.790 497.976 C 345.030 496.339, 344.823 495, 344.329 495 C 343.835 495, 342.629 493.642, 341.649 491.982 C 340.668 490.323, 339.398 489.254, 338.826 489.608 C 338.171 490.012, 338.019 489.515, 338.416 488.266 C 339.125 486.032, 338.248 483, 336.893 483 C 335.480 483, 335.854 490.811, 337.309 491.700 C 338.029 492.140, 339.247 494.075, 340.016 496 C 340.786 497.925, 341.997 500.095, 342.708 500.821 C 344.414 502.566, 344.449 506.388, 342.750 505.367 C 341.901 504.857, 341.940 505.158, 342.872 506.308 C 343.995 507.692, 344.011 508.282, 342.958 509.551 C 341.876 510.854, 341.986 511.184, 343.646 511.618 C 345.225 512.031, 345.652 513.071, 345.780 516.817 C 346.019 523.812, 346.582 526.791, 347.983 528.479 C 350.412 531.406, 348.317 529.961, 343.652 525.491 C 340.677 522.640, 338.717 519.790, 338.322 517.741 C 337.979 515.959, 336.658 512.119, 335.386 509.208 C 331.163 499.545, 325.939 481.914, 324.404 472.143 C 323.571 466.839, 322.628 453.050, 322.308 441.500 C 321.769 421.997, 321.885 419.894, 323.934 412 C 326.495 402.136, 332.460 388.883, 337.488 381.884 C 341.956 375.664, 340.584 375.595, 334.845 381.750 C 320.970 396.634, 313.380 416.254, 312.312 440 C 311.627 455.245, 312.780 463.291, 317.957 479.385 C 324.444 499.551, 324.643 500.797, 320.829 497.345 C 319.823 496.435, 319 496.183, 319 496.786 C 319 497.389, 319.414 498.138, 319.919 498.450 C 320.424 498.762, 322.487 501.968, 324.504 505.573 C 326.520 509.178, 328.766 512.357, 329.494 512.636 C 330.223 512.916, 331.075 514.162, 331.387 515.404 C 331.775 516.952, 332.664 517.638, 334.209 517.582 C 336.995 517.481, 339.416 523.361, 337.711 526.090 C 336.927 527.347, 337.254 528.548, 339.078 531.110 C 340.926 533.705, 341.552 534.087, 341.805 532.772 C 342.084 531.326, 342.465 531.251, 344.317 532.283 C 347.732 534.187, 351 537.234, 351 538.516 C 351 539.859, 362.155 550.777, 366.250 553.441 C 367.806 554.453, 369.012 556.157, 369.028 557.365 C 369.048 558.870, 370.691 560.489, 374.596 562.853 C 377.962 564.891, 379.938 566.718, 379.634 567.511 C 379.336 568.287, 380.106 569.061, 381.529 569.418 C 382.847 569.749, 387.425 572.940, 391.701 576.510 C 398.883 582.505, 402.023 584.464, 400.500 582 C 400.160 581.450, 400.407 581, 401.048 581 C 401.689 581, 401.949 581.689, 401.626 582.532 C 400.087 586.544, 437.096 614.928, 460.500 627.684 C 475.757 636, 503.742 649, 506.387 649 C 507.591 649, 510.360 648.040, 512.539 646.866 C 514.717 645.692, 520.888 642.555, 526.250 639.895 C 537.508 634.312, 540.792 632.162, 547 626.312 C 549.475 623.980, 554.064 620.143, 557.198 617.786 C 560.332 615.429, 570.102 607.982, 578.908 601.237 C 587.715 594.492, 595.295 589.092, 595.752 589.237 C 596.209 589.382, 599.391 586.688, 602.822 583.250 C 606.254 579.813, 609.722 577, 610.531 577 C 611.339 577, 612 576.663, 612 576.250 C 612 575.837, 613.575 574.243, 615.500 572.707 C 620.632 568.613, 619.734 570.671, 613.478 577.342 C 610.465 580.555, 608 583.416, 608 583.700 C 608 583.984, 605.638 586.697, 602.750 589.729 C 595.627 597.210, 579.122 610.307, 564 620.481 C 557.125 625.106, 547.225 632.053, 542 635.920 C 536.775 639.787, 528.314 645.272, 523.199 648.109 C 517.873 651.063, 512.817 654.685, 511.369 656.583 L 508.840 659.899 501.670 657.324 C 486.159 651.753, 468.454 641.436, 434.563 618.221 C 404.609 597.703, 393.109 588.751, 379.602 575.439 C 373.763 569.684, 366.939 563.413, 364.437 561.504 C 354.928 554.245, 345.791 545.247, 341.078 538.500 C 334.697 529.365, 329.093 523.077, 329.047 525 C 328.942 529.362, 331.636 534.617, 337.124 540.757 C 340.438 544.466, 343.810 548.752, 344.617 550.281 C 345.424 551.811, 347.415 554.335, 349.042 555.890 C 350.669 557.444, 352 559.230, 352 559.858 C 352 560.486, 352.401 561, 352.892 561 C 353.382 561, 354.081 562.013, 354.445 563.250 C 355.291 566.123, 369.820 579.095, 381.598 587.492 C 386.602 591.060, 393.802 596.938, 397.598 600.555 C 401.394 604.171, 409.753 611.364, 416.174 616.538 C 422.595 621.712, 428.134 626.407, 428.483 626.972 C 428.832 627.538, 430.125 628, 431.355 628 C 432.585 628, 436.832 629.997, 440.791 632.439 C 448.154 636.978, 469.502 652.445, 474 656.499 C 475.627 657.965, 478.421 658.991, 482 659.436 C 485.025 659.812, 490.200 660.748, 493.500 661.516 C 496.800 662.284, 503.047 663.590, 507.383 664.419 L 515.266 665.925 519.045 663.213 C 521.124 661.721, 527.027 657.297, 532.162 653.383 C 541.971 645.907, 563.507 630.282, 580.657 618.198 C 604.491 601.405, 626.207 580.681, 650.551 551.500 C 673.312 524.215, 682.673 508.970, 690.770 486 C 696.165 470.697, 697.322 462.527, 696.718 444 C 696.126 425.821, 694.381 415.539, 689.931 404 C 684.650 390.310, 676.253 378.653, 666.157 371 C 663.098 368.681, 662.968 368.355, 664.359 366.500 L 665.859 364.500 669.662 366.500 C 675.684 369.666, 686.294 380.814, 690.510 388.404 C 695.043 396.567, 699.252 408.364, 702.213 421.214 C 703.886 428.475, 704.369 433.916, 704.427 446.167 C 704.501 461.984, 705.228 466.532, 706.489 459.067 C 706.867 456.830, 707.586 455, 708.088 455 C 708.590 455, 709 453.945, 709 452.655 C 709 451.365, 709.902 449.494, 711.004 448.496 C 712.701 446.961, 713.413 446.867, 715.647 447.885 C 718.243 449.068, 718.277 449.212, 717.743 456.794 L 717.200 464.500 719.073 457 C 720.405 451.664, 720.957 445.750, 720.987 436.500 C 721.046 418.220, 718.925 407.010, 712.618 392.277 C 705.211 374.970, 701.772 370.510, 688.857 361.461 C 684.536 358.432, 681 355.552, 681 355.059 C 681 354.567, 680.758 353.534, 680.463 352.764 C 680.167 351.994, 680.872 350.161, 682.029 348.690 C 684.077 346.087, 684.213 346.059, 687.223 347.615 C 688.923 348.495, 692.589 351.303, 695.370 353.857 L 700.425 358.500 697.143 354.269 C 695.338 351.941, 692.013 348.455, 689.754 346.521 L 685.646 343.005 687.997 340.503 C 690.821 337.497, 691.671 337.387, 692.474 339.919 C 693.155 342.064, 705.104 354.229, 705.824 353.510 C 706.076 353.257, 704.635 351.040, 702.622 348.583 C 700.609 346.126, 699.082 343.743, 699.231 343.288 C 699.379 342.832, 698.627 340.517, 697.559 338.144 C 695.508 333.583, 696.098 330.818, 699.256 330.196 C 701.483 329.757, 710.494 339.168, 716.250 347.945 C 722.428 357.365, 731.894 376.779, 735.781 388 C 741.257 403.810, 742.500 412.428, 742.500 434.584 L 742.500 454.668 744.184 447.584 C 747.602 433.199, 748.459 423.741, 747.199 414.283 C 744.723 395.679, 738.859 378.939, 729.236 363.001 C 722.520 351.877, 710.427 335.229, 704.853 329.432 C 701.104 325.534, 701.017 325.295, 702.764 323.713 C 704.488 322.154, 705.114 322.554, 714.211 331.035 C 735.997 351.348, 748.606 370.716, 757.659 397.769 C 763.315 414.670, 763.663 430.695, 758.981 458.500 C 755.436 479.554, 753.349 485.751, 747.843 491.572 C 744.486 495.122, 742.547 498.288, 741.410 502.077 C 740.515 505.059, 739.409 508.400, 738.954 509.500 C 738.498 510.600, 737.821 512.579, 737.448 513.898 C 737.076 515.217, 734.221 519.042, 731.104 522.398 C 723.723 530.347, 722.393 533.532, 723.922 539.605 C 725.319 545.152, 723.959 550.516, 720.957 551.301 C 719.010 551.810, 718.140 555, 719.948 555 C 720.520 555, 720.474 556.210, 719.832 558.051 C 718.532 561.782, 718.980 562.338, 722.276 561.085 C 724.223 560.345, 724.958 560.449, 725.371 561.525 C 726.035 563.254, 724.699 564.205, 722.690 563.434 C 721.689 563.050, 721.249 563.447, 721.350 564.643 C 721.600 567.606, 718.520 567.301, 710.425 563.561 C 706.186 561.602, 702.133 560, 701.418 560 C 698.667 560, 699.093 557.918, 702.864 552.935 C 705.017 550.090, 708.566 544.553, 710.750 540.631 C 712.934 536.709, 717.282 528.930, 720.412 523.345 C 726.673 512.173, 729.018 506.389, 734.527 488.535 C 736.999 480.520, 739.502 474.678, 742.106 470.843 C 746.903 463.780, 749.011 456.038, 749.096 445.164 C 749.171 435.652, 748.438 433.531, 747.539 440.658 C 746.472 449.118, 744.832 457.443, 743.886 459.213 C 743.370 460.176, 742.320 460.676, 741.485 460.356 C 740.668 460.042, 740 460.284, 740 460.893 C 740 461.502, 740.450 462, 741 462 C 742.407 462, 742.243 463.292, 740.550 465.559 C 739.164 467.413, 739.120 467.388, 739.560 465 C 740.214 461.455, 737.640 467.278, 724.977 498 C 712.660 527.881, 696.713 555.168, 677.331 579.526 C 659.752 601.618, 618.050 641.224, 594.895 657.819 C 589.728 661.523, 580.100 668.636, 573.500 673.628 C 554.860 687.725, 550.626 690.322, 533.033 698.454 C 523.997 702.631, 515.846 706.734, 514.920 707.573 C 513.037 709.277, 511.629 718.839, 509.998 741 C 508.365 763.200, 508.597 768.688, 511.284 771.375 C 512.540 772.631, 514.453 774.160, 515.534 774.772 C 517.485 775.876, 517.485 775.896, 515.500 777.436 C 513.634 778.884, 511.440 778.873, 507.593 777.397 C 506.630 777.028, 505.972 777.322, 505.928 778.143 C 505.888 778.889, 505.010 783.325, 503.976 788 L 502.097 796.500 502.526 790 C 502.763 786.425, 503.244 764.226, 503.596 740.668 C 504.253 696.714, 504.066 694.041, 500.542 696.965 C 499.215 698.066, 498.981 702.803, 498.864 730.872 C 498.790 748.818, 498.452 768.890, 498.114 775.477 L 497.500 787.454 493.750 782.224 C 491.687 779.348, 490 776.635, 490 776.194 C 490 775.753, 491.575 773.866, 493.500 772 C 495.425 770.134, 497 768.247, 497 767.805 C 497 766.653, 486.915 774.058, 486.299 775.663 C 485.359 778.113, 486.932 781.711, 491.738 788.104 L 496.493 794.430 497.202 791.465 C 497.866 788.692, 497.891 788.726, 497.594 791.989 C 497.419 793.908, 498.139 797.492, 499.194 799.953 L 501.112 804.428 504.498 798.419 C 506.786 794.360, 509.842 790.891, 513.918 787.725 C 521.268 782.017, 522.401 779.028, 518.564 775.472 C 517.097 774.112, 515.481 773, 514.972 773 C 514.463 773, 513.326 771.900, 512.445 770.557 C 510.975 768.314, 510.982 767.063, 512.522 755.307 C 515.521 732.410, 519.806 718.394, 525.566 712.634 C 527.546 710.654, 532.330 707.806, 536.761 705.968 C 549.207 700.806, 561.997 694.182, 569.202 689.166 C 572.888 686.600, 580.467 681.350, 586.044 677.500 C 591.622 673.650, 600.205 667.425, 605.119 663.667 C 613.062 657.591, 614.187 656.329, 615.269 652.286 C 616.335 648.299, 617.977 646.405, 628.595 636.915 C 649.287 618.422, 676.260 589.339, 690.102 570.597 C 693.594 565.869, 696.913 562.024, 697.476 562.054 C 699.356 562.152, 717.446 571.485, 717.724 572.500 C 718.124 573.964, 713.440 579.093, 712.490 578.232 C 712.045 577.830, 711.926 578.189, 712.225 579.031 C 712.819 580.704, 712.012 581.638, 684.904 610.661 C 656.725 640.830, 636.322 659.741, 612.254 678 C 600.989 686.546, 599.425 688.337, 600.584 691.359 C 601.750 694.398, 599.359 696.166, 639 662.956 C 657.046 647.837, 666.504 638.424, 699.321 602.917 C 722.984 577.315, 730.819 567.625, 735.028 558.757 C 737.064 554.466, 738.973 552.190, 742.576 549.757 C 749.276 545.232, 752.103 539.249, 752.905 527.895 L 753.522 519.182 759.087 513.341 C 762.375 509.890, 765.412 505.504, 766.511 502.620 L 768.371 497.740 770.186 499.981 C 771.216 501.253, 772 503.839, 772 505.963 C 772 509.604, 771.117 511.254, 764.924 519.196 C 763.318 521.256, 761.675 525.513, 760.562 530.500 C 759.580 534.900, 757.775 540.525, 756.551 543 C 750.980 554.264, 723.288 588.548, 695.622 618.434 C 673.242 642.609, 641.320 670.877, 615.707 689.199 C 602.385 698.730, 568.079 720, 557.500 725.288 C 541.904 733.085, 527.642 742, 530.766 742 C 535.197 742, 569.284 726.134, 584 717.223 C 601.257 706.772, 635.857 681.228, 659.815 661.252 C 684.027 641.063, 722.070 599.808, 753.281 559.894 C 760.276 550.948, 765.176 541.159, 767.902 530.685 C 769.194 525.720, 771.047 521.466, 772.982 519.023 C 780.041 510.110, 780.767 503.175, 775.498 494.996 C 771.768 489.207, 771.563 488.699, 770.468 482.500 L 769.761 478.500 768.331 482.500 C 767.544 484.700, 766.413 488.745, 765.816 491.489 C 764.919 495.615, 763.714 497.459, 758.843 502.151 C 754.764 506.081, 752.025 509.875, 749.930 514.493 C 746.950 521.067, 746.741 522.230, 746.994 530.858 C 747.132 535.548, 744.519 540.300, 738.643 546.045 C 736.428 548.211, 735.407 548.667, 734.825 547.751 C 733.549 545.741, 733.865 545, 736 545 C 738.223 545, 738.662 543.527, 736.784 542.366 C 736.115 541.953, 733.978 541.358, 732.034 541.044 C 729.354 540.611, 728.423 539.932, 728.180 538.237 C 727.940 536.556, 728.361 536, 729.875 536 C 734.188 536, 738.110 529.978, 743.228 515.500 C 746.740 505.566, 748.393 502.359, 752.452 497.608 C 754.938 494.698, 757.888 490.247, 759.007 487.717 C 761.102 482.980, 765.473 456.537, 768.558 429.939 C 770.824 410.400, 769.491 393.657, 764.621 380.500 C 762.707 375.327, 762.626 376.731, 764.427 383.856 C 765.212 386.960, 766.137 392.650, 766.482 396.500 C 767.053 402.880, 766.974 403.332, 765.584 401.600 C 764.746 400.555, 762.860 396.505, 761.392 392.600 C 757.324 381.774, 749.586 366.792, 743.091 357.165 C 739.875 352.399, 730.848 341.863, 723.030 333.750 C 715.212 325.637, 709.441 319, 710.204 319 C 712.139 319, 729.453 334.669, 735.500 341.891 C 738.250 345.176, 740.853 347.894, 741.285 347.932 C 742.716 348.056, 739.859 343.655, 729 329 C 714.923 310.003, 715.414 311.101, 718.880 306.364 C 720.435 304.239, 722.681 301.636, 723.871 300.579 C 726.019 298.672, 726.056 298.679, 729.155 301.579 C 737.608 309.492, 754.356 334.816, 761.667 350.739 C 766.963 362.273, 768.581 367.481, 772.407 385.307 C 778.535 413.860, 780.491 437.839, 778.630 461.616 L 777.760 472.732 782.880 477.879 L 788 483.026 788 479.636 C 788 477.771, 787.337 475.695, 786.526 475.022 C 784.120 473.025, 783.792 468.044, 785.443 458.619 C 786.309 453.679, 787 444.050, 787 436.920 C 787 390.642, 770.923 347.710, 735.914 300.500 C 730.932 293.782, 731.098 291.246, 737.105 282.345 C 741.868 275.286, 742.069 275.128, 747.730 273.995 C 766.097 270.320, 773.892 267.331, 775.406 263.383 C 776.392 260.816, 775.504 260.640, 770.376 262.388 C 760.199 265.855, 764.216 263.651, 778.465 257.950 C 786.696 254.656, 794.571 250.905, 795.965 249.613 C 797.359 248.321, 801.087 245.635, 804.250 243.645 C 807.413 241.654, 810 239.823, 810 239.575 C 810 238.951, 804.440 239.845, 791.077 242.617 C 784.795 243.921, 779.504 244.838, 779.321 244.654 C 779.138 244.471, 779.866 243.526, 780.940 242.554 C 782.172 241.440, 788.819 239.567, 798.954 237.479 C 807.788 235.660, 817.149 233.137, 819.758 231.874 L 824.500 229.577 821.500 228.745 C 819.470 228.183, 815.591 228.542, 809.500 229.857 C 804.550 230.926, 801.628 231.845, 803.007 231.900 C 804.385 231.955, 807.055 231.558, 808.940 231.017 C 812.080 230.117, 814.001 230.332, 812.875 231.459 C 812.623 231.711, 808.385 232.610, 803.458 233.457 C 798.531 234.304, 793.150 235.239, 791.500 235.536 L 788.500 236.075 791 234.573 C 792.375 233.747, 795.075 233.023, 797 232.965 C 799.555 232.888, 800 232.663, 798.649 232.131 C 797.359 231.624, 800.390 230.418, 808.649 228.153 C 821.333 224.674, 833.430 219.393, 836.511 215.988 C 838.403 213.897, 838.402 213.897, 835.463 215.014 C 833.846 215.629, 831.167 216.947, 829.511 217.942 C 827.855 218.938, 823.464 220.744, 819.754 221.956 C 811.544 224.639, 792 229.800, 792 229.286 C 792 229.082, 794.813 227.585, 798.250 225.958 C 803.557 223.448, 804.059 223.001, 801.576 223.001 L 798.651 223 800.921 220.584 C 802.430 218.977, 805.925 217.460, 811.346 216.056 C 821.097 213.531, 832.989 207.858, 837.056 203.790 C 839.221 201.625, 840 199.896, 840 197.256 C 840 193.122, 839.304 193.525, 836.505 199.277 C 834.081 204.258, 826.384 208.807, 815.140 211.906 L 807.780 213.934 810.640 211.268 C 812.213 209.802, 815.075 207.776, 817 206.766 C 819.454 205.477, 819.753 205.124, 818 205.583 L 815.500 206.238 818.199 203.369 C 819.684 201.791, 823.627 199.418, 826.961 198.095 C 834.117 195.256, 834.408 194.471, 827.538 196.538 C 824.861 197.344, 822.476 197.809, 822.239 197.572 C 821.723 197.056, 826.818 189.744, 830.718 185.404 C 832.248 183.701, 836.538 180.191, 840.250 177.604 C 843.962 175.016, 847 172.476, 847 171.958 C 847 171.440, 844.276 173.089, 840.946 175.621 C 837.616 178.153, 834.620 179.953, 834.287 179.620 C 833.524 178.857, 847.277 158.103, 855.573 147.500 C 862.035 139.239, 871.326 128.277, 885.921 111.692 L 894.341 102.123 901.400 100.933 C 907.185 99.957, 909.048 99.152, 911.729 96.471 C 916.127 92.073, 916.255 87.101, 912.077 82.923 C 908.198 79.044, 903.385 78.963, 898.941 82.703 M 900.395 86.514 C 898.436 88.473, 897.949 89.853, 898.190 92.764 C 898.470 96.136, 898.804 96.530, 901.619 96.804 C 904.017 97.037, 905.463 96.383, 907.869 93.977 C 911.520 90.326, 911.744 88.744, 909 86 C 906.310 83.310, 903.427 83.482, 900.395 86.514 M 851.137 141.750 C 845.182 147.662, 835.521 158.800, 829.668 166.500 C 807.813 195.252, 790.514 216.888, 779.179 229.647 C 761.479 249.571, 747.822 266.666, 750.395 265.679 C 751.264 265.345, 755.805 263.878, 760.487 262.418 C 765.169 260.959, 769 259.544, 769 259.275 C 769 259.006, 768.302 259.054, 767.448 259.382 C 766.594 259.709, 766.134 259.593, 766.424 259.123 C 766.714 258.654, 768.641 257.995, 770.707 257.660 C 774.868 256.985, 790.234 250.900, 789.537 250.204 C 789.083 249.750, 769.694 255.599, 760.105 259.083 C 757.137 260.161, 754.542 260.875, 754.337 260.670 C 754.132 260.465, 756.679 258.851, 759.997 257.082 C 763.573 255.176, 768.774 251.006, 772.765 246.845 C 776.469 242.983, 782.964 236.376, 787.197 232.162 C 807.114 212.335, 816.795 199.839, 842.328 161 C 851.552 146.969, 857.579 138.189, 860.690 134.250 C 865.408 128.276, 862.060 130.904, 851.137 141.750 M 827.563 158.040 C 819.031 164.144, 816 166.940, 816 168.708 C 816 170.268, 811.782 178.566, 809.534 181.427 C 806.739 184.985, 807.136 182.551, 810.582 174.997 L 814.003 167.500 810.568 171.163 C 808.678 173.178, 806.602 176.778, 805.954 179.163 C 803.897 186.735, 802.877 188.820, 799.565 192.230 C 795.510 196.405, 790 203.961, 790 205.346 C 790 207.080, 796.763 200.031, 803.764 191 C 807.388 186.325, 811.749 181.150, 813.455 179.500 C 819.571 173.585, 836.319 152.885, 834.865 153.039 C 834.664 153.060, 831.378 155.310, 827.563 158.040 M 850.923 162.250 C 850.881 162.387, 850.690 163.327, 850.499 164.338 C 850.308 165.348, 849.431 166.971, 848.552 167.943 C 847.672 168.915, 847.211 170.386, 847.527 171.211 C 848.299 173.222, 844.152 182.392, 839.613 188.710 C 836.895 192.493, 836.400 193.701, 837.717 193.337 C 840.849 192.471, 846.274 183.974, 847.736 177.645 C 848.494 174.365, 849.706 170.515, 850.430 169.090 C 852.574 164.871, 853.237 162, 852.067 162 C 851.480 162, 850.966 162.113, 850.923 162.250 M 800.646 179.750 C 799.873 181.262, 798.928 184.075, 798.546 186 C 798.163 187.925, 797.638 190.400, 797.378 191.500 C 797.011 193.049, 797.112 193.162, 797.824 192 C 798.330 191.175, 799.065 188.716, 799.458 186.535 C 799.850 184.354, 800.819 181.316, 801.611 179.785 C 802.403 178.253, 802.826 177, 802.551 177 C 802.276 177, 801.419 178.238, 800.646 179.750 M 794.132 181.359 C 792.302 183.307, 791.835 185.238, 791.409 192.605 C 790.936 200.783, 791.013 201.296, 792.366 198.966 C 793.604 196.834, 797.171 180.009, 796.545 179.254 C 796.433 179.119, 795.347 180.066, 794.132 181.359 M 783.264 189.973 C 780.586 192.159, 779.037 195.913, 778.300 202 C 777.675 207.164, 774.691 215.712, 772.519 218.560 C 771.600 219.763, 772.001 217.652, 773.573 213 C 774.967 208.875, 776.312 202.350, 776.561 198.500 C 776.996 191.800, 776.952 191.629, 775.553 194.500 C 774.748 196.150, 774.070 198.721, 774.045 200.213 C 774.020 201.705, 773.062 205.305, 771.915 208.213 C 769.718 213.783, 765.007 230.563, 765.003 232.833 C 764.999 234.840, 775.857 221.200, 778.662 215.673 C 781.168 210.736, 786.330 191.749, 785.796 189.432 C 785.579 188.489, 784.904 188.634, 783.264 189.973 M 481.500 193.643 C 478.750 196.148, 473.238 200.682, 469.250 203.720 L 462 209.242 462 235.121 C 462 249.355, 462.392 261, 462.871 261 C 464.200 261, 465.089 248.626, 464.524 238 L 464.018 228.500 475.946 218.258 L 487.875 208.016 499.851 217.998 C 506.437 223.488, 512.055 228.546, 512.334 229.240 C 512.614 229.933, 512.878 225.948, 512.921 220.385 L 513 210.269 505.750 204.177 C 501.762 200.826, 496.250 196.058, 493.500 193.581 C 490.750 191.104, 488.050 189.080, 487.500 189.083 C 486.950 189.087, 484.250 191.139, 481.500 193.643 M 786.677 193.750 C 785.985 194.925, 784.706 201.559, 785.279 201 C 785.934 200.360, 787.958 193, 787.478 193 C 787.280 193, 786.919 193.338, 786.677 193.750 M 554 217.012 C 554 217.935, 554.927 219.529, 556.061 220.555 C 557.825 222.152, 558.255 222.210, 559.046 220.960 C 559.554 220.157, 559.976 218.563, 559.985 217.417 C 559.997 215.765, 559.378 215.333, 557 215.333 C 554.858 215.333, 554 215.814, 554 217.012 M 815 230 C 813.667 230.862, 813.667 230.960, 815 230.885 C 815.825 230.839, 817.625 230.440, 819 230 L 821.500 229.199 819 229.115 C 817.625 229.069, 815.825 229.467, 815 230 M 543 234 C 539.299 237.701, 541.399 243.250, 546.500 243.250 C 549.531 243.250, 552 240.808, 552 237.809 C 552 235.618, 548.575 232, 546.500 232 C 545.675 232, 544.100 232.900, 543 234 M 741.518 232.971 C 740.339 234.878, 739.639 252.659, 740.716 253.325 C 741.335 253.707, 741.968 249.943, 742.394 243.342 C 743.067 232.947, 742.882 230.764, 741.518 232.971 M 544.362 236.500 C 543.691 238.247, 544.558 241, 545.777 241 C 546.240 241, 547.474 240.374, 548.521 239.608 C 550.138 238.426, 550.224 237.975, 549.090 236.608 C 547.413 234.588, 545.116 234.535, 544.362 236.500 M 616.206 237.047 C 613.658 238.070, 614.145 240.011, 617.775 243.297 C 619.674 245.015, 619.753 244.983, 620.298 242.285 C 620.607 240.753, 621.165 238.713, 621.537 237.750 C 622.304 235.767, 620.115 235.479, 616.206 237.047 M 481.236 270.250 C 481.464 298.133, 481.703 302.500, 483 302.500 C 484.296 302.500, 484.528 298.321, 484.708 271.723 C 484.823 254.795, 484.662 240.283, 484.351 239.473 C 484.040 238.663, 483.153 238, 482.379 238 C 481.194 238, 481.014 243.074, 481.236 270.250 M 681.910 239.872 C 680.187 241.267, 679.894 242.239, 680.443 244.739 C 680.820 246.456, 681.799 248.418, 682.619 249.099 C 683.837 250.110, 684.509 249.919, 686.305 248.054 L 688.500 245.773 686.164 246.967 C 683.018 248.577, 682.366 247.616, 684.449 244.437 C 685.622 242.648, 686.780 241.971, 688.085 242.312 C 690.950 243.061, 690.383 241.725, 687.025 239.814 C 684.237 238.228, 683.936 238.231, 681.910 239.872 M 314.357 242.577 C 312.198 245.873, 313.419 249.819, 317.263 251.969 C 319.721 253.344, 320.281 253.344, 322.750 251.969 C 324.687 250.890, 325.591 249.504, 325.809 247.278 C 326.450 240.717, 317.881 237.200, 314.357 242.577 M 316.560 244.218 C 315.222 246.127, 315.203 246.631, 316.419 247.847 C 318.321 249.750, 323 248.565, 323 246.181 C 323 244.117, 321.155 242, 319.357 242 C 318.673 242, 317.414 242.998, 316.560 244.218 M 798.813 242.683 C 799.534 242.972, 800.397 242.936, 800.729 242.604 C 801.061 242.272, 800.471 242.036, 799.417 242.079 C 798.252 242.127, 798.015 242.364, 798.813 242.683 M 785.326 245.859 C 777.150 248.212, 772.953 250, 775.603 250 C 777.316 250, 790.446 246.146, 794 244.601 C 799.134 242.368, 795.752 242.858, 785.326 245.859 M 744.158 249 C 744.158 250.375, 744.385 250.938, 744.662 250.250 C 744.940 249.563, 744.940 248.438, 744.662 247.750 C 744.385 247.063, 744.158 247.625, 744.158 249 M 343 257.982 C 343 259.164, 343.496 261.059, 344.103 262.193 C 345.514 264.829, 344.576 265.430, 336.605 266.998 C 328.170 268.657, 311.474 275.070, 300.366 280.918 C 274.292 294.644, 250.221 318.744, 237.038 344.322 C 233.760 350.681, 233.206 352.516, 234.073 354.136 C 235.529 356.857, 236.999 355.490, 241.569 347.165 C 251.564 328.958, 273.354 304.922, 289.183 294.641 C 304.829 284.479, 324.412 275.812, 341.500 271.487 C 346.866 270.129, 350.597 268.662, 350.740 267.854 C 351.057 266.068, 345.852 256.749, 344.250 256.235 C 343.513 255.998, 343 256.716, 343 257.982 M 305.989 258.435 C 296.186 262.049, 279.601 272.107, 267.046 282.050 C 248.245 296.940, 226.437 322.286, 217.933 339.132 C 213.185 348.538, 214.613 349.285, 219.590 340 C 235.147 310.983, 266.540 281.729, 299.787 265.268 C 307.095 261.650, 313.309 258.309, 313.596 257.845 C 314.361 256.607, 310.038 256.943, 305.989 258.435 M 436.635 264.073 C 435.186 265.212, 434 266.479, 434 266.887 C 434 267.771, 441.066 271.267, 441.657 270.676 C 442.329 270.004, 440.807 262, 440.007 262 C 439.602 262, 438.084 262.933, 436.635 264.073 M 756.670 265.578 C 750.626 267.042, 745.009 269.616, 750 268.635 C 751.375 268.365, 754.607 267.840, 757.183 267.468 C 759.758 267.097, 762.107 266.165, 762.401 265.397 C 762.696 264.628, 762.839 264.037, 762.719 264.083 C 762.598 264.129, 759.877 264.802, 756.670 265.578 M 644 275.871 C 650.325 276.886, 658.650 278.512, 662.500 279.486 C 670.859 281.599, 687.842 288.183, 693.678 291.573 C 698.773 294.532, 699.176 294.549, 700.847 291.873 C 702.813 288.726, 701.195 287.622, 687.824 282.986 C 670.720 277.056, 660.395 274.979, 645.500 274.470 L 632.500 274.026 644 275.871 M 456 277.918 C 456 278.496, 457.359 280.438, 459.019 282.234 L 462.038 285.500 461.769 281.500 C 461.531 277.959, 461.185 277.464, 458.750 277.184 C 457.238 277.010, 456 277.340, 456 277.918 M 345 280.965 C 327.504 284.720, 305.186 294.543, 292.736 303.968 C 265.595 324.514, 241.294 367.151, 234.583 406 C 231.567 423.462, 231.513 455.077, 234.500 455.045 C 235.071 455.038, 235.790 449.981, 236.176 443.267 C 238.337 405.658, 243.336 383.195, 254.465 361.091 C 268.089 334.032, 291.997 306.900, 310.733 297.234 C 323.358 290.720, 351.755 282.745, 366.996 281.431 C 372.709 280.939, 374.838 280.444, 373.496 279.920 C 369.886 278.511, 353.662 279.106, 345 280.965 M 753.638 282.777 C 753.219 283.455, 765.570 297, 766.606 297 C 766.823 297, 767 294.844, 767 292.208 L 767 287.417 761.478 284.708 C 755.615 281.833, 754.405 281.535, 753.638 282.777 M 742 285.968 C 742 286.501, 746.757 291.970, 752.571 298.122 C 773.462 320.227, 790.676 351.369, 796.997 378.489 C 804.815 412.039, 804.359 454.231, 795.932 476.882 C 794.831 479.841, 794.145 482.478, 794.407 482.741 C 794.670 483.003, 796.195 482.639, 797.795 481.930 C 800.486 480.739, 800.942 479.698, 803.858 468.071 C 807.611 453.112, 808.796 437.605, 807.876 415.500 C 807.100 396.855, 805.713 387.423, 801.772 374 C 791.766 339.914, 774.135 311.089, 751.500 291.813 C 743.574 285.063, 742 284.095, 742 285.968 M 713.765 288.925 C 713.023 289.984, 706.545 297.297, 699.369 305.175 C 692.192 313.054, 679.202 327.375, 670.501 337 C 638.986 371.861, 625.483 385.517, 619.570 388.509 C 612.578 392.046, 604.822 398.710, 592.197 412.025 L 582.218 422.551 584.109 424.886 C 585.149 426.171, 586 428.450, 586 429.951 C 586 434.346, 580.538 443.826, 572.433 453.500 C 564.001 463.565, 551.072 477, 549.818 477 C 547.320 477, 550.646 472.551, 569.195 451.080 C 578.363 440.468, 583 433.322, 583 429.807 C 583 426.808, 580.792 426.195, 573.556 427.185 C 562.680 428.673, 560.207 430.082, 557.672 436.232 C 556.477 439.129, 551.653 449.150, 546.950 458.500 C 538.905 474.496, 533 489.866, 533 494.809 C 533 498.061, 535.726 497.598, 544.673 492.825 C 551.944 488.947, 558.190 484.531, 578.333 469.028 C 585.773 463.302, 586.449 462.999, 591.833 462.978 C 598.854 462.951, 604.465 460.512, 608.759 455.622 C 612.415 451.458, 612.812 449.045, 610.228 446.706 C 608.578 445.213, 607.982 445.482, 601.613 450.589 C 597.850 453.607, 592.910 457.011, 590.635 458.153 C 586.659 460.150, 581.606 463.815, 562.847 478.311 C 554.062 485.099, 540.348 494, 538.674 494 C 536.953 494, 540.487 490.700, 554 479.689 C 561.425 473.638, 572.661 465.331, 578.970 461.228 C 598.733 448.376, 613.408 435.187, 621.466 423.034 C 626.174 415.934, 635.459 396.125, 634.519 395.186 C 633.786 394.452, 627.413 401.727, 613.874 418.752 C 603.397 431.926, 594.224 441, 591.383 441 C 589.232 441, 591.150 437.775, 597.923 430 C 601.038 426.425, 609.786 415.964, 617.363 406.753 C 624.940 397.542, 633.921 386.943, 637.320 383.199 C 646.797 372.762, 699.632 313.983, 712.231 299.861 C 718.609 292.712, 718.897 292.178, 717.731 289.666 C 716.262 286.503, 715.554 286.371, 713.765 288.925 M 613.193 293.072 C 597.777 295.074, 579.562 302.233, 557.671 314.894 C 552.815 317.702, 548.203 320, 547.421 320 C 546.640 320, 546 320.351, 546 320.781 C 546 321.759, 540.477 324.172, 536.508 324.929 C 534.151 325.379, 533.406 326.133, 533.002 328.476 C 532.594 330.843, 530.959 332.462, 525.004 336.396 C 515.904 342.407, 517.338 343.860, 526.599 338.012 C 530.222 335.724, 533.481 334.155, 533.843 334.526 C 534.204 334.896, 532.475 336.981, 530 339.157 C 518.962 348.866, 503.160 363.837, 500.173 367.416 C 497.310 370.846, 497.085 371.513, 498.361 372.790 C 499.638 374.066, 501.597 372.650, 514.152 361.374 C 532.201 345.163, 537.130 340.215, 538.950 336.478 C 540.798 332.685, 546.011 327, 547.641 327 C 548.327 327, 550.601 325.401, 552.694 323.447 C 558.414 318.106, 568.811 312.339, 585.494 305.252 C 603.138 297.758, 611.751 295.185, 622 294.346 C 626.125 294.008, 630.175 293.356, 631 292.896 C 632.890 291.844, 621.812 291.953, 613.193 293.072 M 317.446 300.107 C 314.726 301.816, 307.544 308.229, 301.487 314.357 C 278.883 337.229, 257.542 370.290, 250.545 393.276 C 246.225 407.469, 243.932 423.847, 243.373 444.500 C 242.986 458.820, 242.343 465.717, 240.763 472.500 C 239.295 478.801, 238.642 485.098, 238.583 493.500 C 238.501 505.292, 238.562 505.630, 242.093 513 C 245.932 521.012, 256.341 535.366, 260.399 538.243 C 261.751 539.201, 265.205 543.872, 268.074 548.623 C 274.924 559.963, 302.911 597.192, 316.469 613 C 329.297 627.957, 353.836 654.043, 354.808 653.758 C 356.223 653.343, 361.083 657.342, 360.622 658.541 C 360.360 659.227, 361.140 660.722, 362.357 661.866 C 364.101 663.504, 365.356 663.817, 368.285 663.341 C 374.794 662.285, 373.458 660.266, 357.469 647 C 336.437 629.549, 325.430 617.320, 294.468 577 C 274.338 550.787, 265.022 537.318, 264.965 534.347 C 264.945 533.331, 264.334 531.427, 263.607 530.115 L 262.285 527.729 261.643 530.285 C 261.290 531.691, 261.275 533.552, 261.608 534.421 C 261.941 535.289, 261.819 536, 261.337 536 C 259.900 536, 248.679 515.053, 246.253 507.840 C 243.482 499.603, 242.113 487.622, 243.152 480.702 C 243.581 477.841, 244.240 472.440, 244.616 468.700 C 245.129 463.585, 245.633 462.029, 246.649 462.419 C 247.749 462.841, 248.004 459.922, 248.020 446.719 C 248.052 419.880, 253.047 390.871, 260.063 376.774 C 265.688 365.471, 277.859 346.705, 285.679 337.276 C 305.355 313.553, 313.387 304.759, 320 299.700 C 324.695 296.108, 323.511 296.297, 317.446 300.107 M 327 302 C 327 302.550, 327.450 303, 328 303 C 328.550 303, 329 302.550, 329 302 C 329 301.450, 328.550 301, 328 301 C 327.450 301, 327 301.450, 327 302 M 218 304.969 C 218 305.501, 217.256 305.652, 216.348 305.303 C 215.091 304.821, 215.256 305.428, 217.036 307.835 C 220.155 312.054, 222 311.930, 222 307.500 C 222 304.667, 221.619 304, 220 304 C 218.900 304, 218 304.436, 218 304.969 M 788.923 308.923 C 781.274 316.573, 790.071 328.363, 800.455 324.379 C 802.396 323.634, 805 318.888, 805 316.097 C 805 312.716, 802.749 308.922, 799.855 307.425 C 795.567 305.207, 792.174 305.672, 788.923 308.923 M 370.083 309.408 C 370.313 309.632, 374.439 310.749, 379.253 311.890 C 391.270 314.737, 411.330 322.846, 424.331 330.110 C 430.289 333.439, 436.364 336.370, 437.831 336.624 C 439.299 336.878, 440.987 337.724, 441.581 338.504 C 443.919 341.568, 452 342.745, 452 340.022 C 452 339.557, 450.582 337.984, 448.848 336.526 C 446.707 334.724, 445.470 334.240, 444.990 335.015 C 444.510 335.793, 442.566 335.058, 438.892 332.711 C 419.895 320.568, 388.583 309.027, 374.583 309.007 C 371.879 309.003, 369.854 309.184, 370.083 309.408 M 592 313.870 C 579.410 318.499, 557.313 329.038, 554.973 331.529 C 552.892 333.744, 553.426 333.655, 564.132 330.009 C 570.384 327.879, 578.650 324.826, 582.500 323.223 C 586.350 321.621, 593.295 319.051, 597.933 317.512 L 606.365 314.714 604.072 312.857 C 601.194 310.526, 601.062 310.538, 592 313.870 M 791.604 313.155 C 789.819 315.704, 790.899 318.516, 794.047 319.515 C 796.616 320.330, 799 318.435, 799 315.578 C 799 310.988, 794.219 309.422, 791.604 313.155 M 337.410 315.001 C 324.220 321.698, 303.477 341.303, 292.364 357.573 C 283.716 370.235, 282.414 373.201, 278.477 389.226 C 272.011 415.537, 270.640 436.398, 273.521 464.610 C 275.891 487.826, 276.902 490.534, 284.541 494.124 C 287.008 495.284, 289.271 496.630, 289.572 497.116 C 289.872 497.602, 291.228 498, 292.584 498 C 294.310 498, 295.342 497.231, 296.025 495.435 C 297.787 490.801, 297.320 490.009, 292.750 489.882 C 281.519 489.569, 279.587 487.175, 285.937 481.438 C 292.284 475.704, 291.128 473.377, 283.514 476.559 C 281.462 477.416, 279.526 477.859, 279.211 477.544 C 276.752 475.086, 275.142 428.565, 276.937 411.870 C 278.168 400.421, 280.966 385.738, 282.843 380.875 C 283.661 378.755, 284.351 378.344, 286.428 378.741 C 288.100 379.061, 289 378.788, 289 377.961 C 289 377.261, 290.125 375.214, 291.500 373.411 C 294.190 369.884, 294.695 368.452, 292.845 369.595 C 292.153 370.024, 291.962 369.871, 292.368 369.214 C 292.848 368.436, 293.911 368.422, 296.039 369.164 C 299.402 370.336, 303.052 368.640, 305 365 C 306.507 362.184, 304.758 362.515, 301.636 365.636 C 295.608 371.665, 299.844 364.623, 308.769 353.779 C 331.516 326.143, 354.497 315.180, 378.604 320.466 C 382.947 321.418, 386.853 322.528, 387.284 322.932 C 387.715 323.337, 384.790 324.250, 380.784 324.963 C 356.106 329.351, 332.693 342.864, 316.609 362 L 312.827 366.500 313.395 361.747 C 313.707 359.133, 314.902 355.151, 316.051 352.900 C 318.960 347.199, 317.862 346.983, 314.186 352.533 C 311.171 357.085, 309.279 362.613, 310.365 363.698 C 310.670 364.004, 310.265 365.521, 309.464 367.070 C 308.444 369.042, 308.335 370.089, 309.100 370.562 C 309.701 370.933, 310.002 372.534, 309.769 374.118 C 309.243 377.702, 310.241 377.780, 312.927 374.365 C 314.067 372.916, 315 372.214, 315 372.806 C 315 373.398, 314.595 374.132, 314.101 374.438 C 312.484 375.437, 309.040 382, 310.133 382 C 311.836 382, 316.946 376.067, 321.758 368.500 C 329.533 356.275, 339.429 347.633, 353.768 340.547 C 366.102 334.451, 373.562 332.818, 391.500 332.290 C 407.033 331.832, 414.195 332.617, 430.500 336.568 C 437.053 338.156, 417.440 329.597, 407.500 326.532 C 400.900 324.496, 390.673 321.294, 384.774 319.415 C 367.503 313.916, 356.818 314.840, 338.582 323.410 C 326.901 328.898, 320.321 334.375, 309.059 347.982 C 304.044 354.042, 299.691 359, 299.387 359 C 298.615 359, 309.491 343.533, 314.426 337.613 C 319.660 331.334, 335.108 318.617, 340.406 316.226 C 342.657 315.210, 345.625 313.874, 347 313.257 L 349.500 312.135 346.410 312.068 C 344.710 312.030, 340.660 313.350, 337.410 315.001 M 312.334 316.830 C 305.134 322.521, 295.638 333.234, 287.806 344.500 C 279.198 356.883, 265.895 383.602, 262.605 395.116 C 254.003 425.217, 258.490 493.070, 270.891 520.419 C 272.611 524.212, 273.825 527.508, 273.590 527.743 C 273.355 527.979, 272.614 527.147, 271.944 525.895 C 271.273 524.642, 269.162 522.016, 267.252 520.059 C 259.299 511.911, 254.313 502.262, 250.426 487.500 L 248.056 478.500 248.342 488.500 C 248.667 499.838, 250.775 506.302, 257.406 516.292 C 261.974 523.175, 272.752 532.019, 274.037 529.940 C 274.647 528.953, 275.341 529.475, 276.682 531.931 C 280.873 539.607, 286.499 547.318, 293.628 555.159 C 302.620 565.048, 304.185 567.758, 301.704 569.146 C 299.347 570.465, 299.572 572.249, 302.434 574.938 L 304.867 577.224 305.522 573.733 C 306.313 569.520, 305.007 566.738, 297.865 557.419 C 291.133 548.636, 279.604 529.597, 276.918 522.827 C 275.756 519.897, 273.033 512.471, 270.867 506.325 C 260.330 476.420, 258.437 419.006, 267.030 389.947 C 272.227 372.372, 290.762 342.731, 307.887 324.612 C 319.768 312.040, 320.900 310.059, 312.334 316.830 M 394.259 337.076 C 384.700 338.222, 374.470 341.746, 360.742 348.621 C 336.058 360.983, 328.503 366.401, 320 377.837 L 315.500 383.889 309.500 383.795 C 306.200 383.743, 302.285 383.093, 300.800 382.350 C 299.314 381.608, 296.899 381, 295.431 381 L 292.763 381 295.403 384.462 L 298.044 387.924 295.922 393.712 C 288.748 413.281, 286.349 423.801, 285.137 441 C 284.691 447.325, 283.956 453.349, 283.504 454.387 C 282.761 456.091, 283.012 456.207, 286.090 455.589 C 295.738 453.653, 295.758 453.655, 299.711 456.922 L 303.500 460.053 304.132 457.276 C 304.479 455.749, 304.818 451.575, 304.885 448 C 305.514 414.320, 324.575 379.263, 350.638 363.851 C 371.825 351.321, 394.131 346.135, 414.565 348.988 C 430.184 351.169, 447.594 357.809, 459.909 366.281 C 469.160 372.646, 487.009 391.089, 497.820 405.454 C 500.196 408.611, 502.338 410.995, 502.580 410.753 C 502.823 410.510, 502.342 408.385, 501.511 406.030 C 499.267 399.670, 499.582 397.678, 503.250 395.027 C 505.038 393.736, 510.459 388.494, 515.297 383.380 C 528.938 368.962, 541.256 361.684, 562.377 355.564 C 581.655 349.977, 596.323 350.128, 620.300 356.158 C 626.790 357.790, 633.090 358.985, 634.300 358.813 C 635.766 358.604, 637.159 357.082, 638.474 354.250 C 639.560 351.913, 641.060 350, 641.807 350 C 642.555 350, 642.999 349.438, 642.794 348.750 C 642.185 346.705, 631.487 342.017, 621.155 339.267 C 612.740 337.028, 609.381 336.688, 595 336.616 C 580.105 336.541, 577.515 336.795, 568.370 339.226 C 555.461 342.658, 548.755 345.648, 538.169 352.692 C 524.610 361.713, 508.712 378.106, 510.583 381.135 C 510.877 381.611, 510.641 382, 510.059 382 C 509.477 382, 508.993 383.012, 508.985 384.250 C 508.972 386.077, 508.784 386.218, 507.985 385 C 507.134 383.705, 506.874 383.696, 506.076 384.936 C 505.311 386.125, 504.882 386.147, 503.576 385.063 C 501.645 383.460, 501.544 381.370, 503.346 380.300 C 504.839 379.412, 506.419 373, 505.144 373 C 504.701 373, 503.727 374.141, 502.981 375.535 C 502.233 376.934, 501.037 377.844, 500.312 377.566 C 499.591 377.289, 499 377.724, 499 378.531 C 499 380.204, 497.426 380.499, 496.500 379 C 496.160 378.450, 496.359 378, 496.941 378 C 499.107 378, 497.880 376.329, 493.967 373.951 C 491.749 372.603, 488.961 370.696, 487.772 369.713 C 486.368 368.554, 484.710 368.124, 483.046 368.490 C 480.981 368.943, 478.246 367.472, 468.991 360.930 C 452 348.919, 439.054 342.810, 422.553 339.018 C 412.069 336.609, 403.221 336.002, 394.259 337.076 M 470 349.559 C 470 349.789, 472.623 351.895, 475.828 354.239 C 481.963 358.724, 488 364.995, 488 366.882 C 488 367.497, 488.450 368, 489 368 C 489.550 368, 490 365.759, 490 363.020 C 490 358.273, 489.825 357.952, 486.250 356.129 C 481.255 353.582, 470 349.032, 470 349.559 M 189.515 356.976 C 189.183 357.513, 189.541 359.154, 190.310 360.622 L 191.708 363.291 193.354 359.992 C 194.259 358.177, 195 356.537, 195 356.346 C 195 355.524, 190.061 356.092, 189.515 356.976 M 212.693 360.028 C 210.619 362.990, 206.600 373.477, 204.466 381.500 C 202.983 387.073, 201.096 413.116, 202.256 412 C 202.541 411.725, 203.301 407.450, 203.945 402.500 C 205.780 388.369, 207.889 379.251, 211.649 369.191 C 215.224 359.623, 215.661 355.790, 212.693 360.028 M 673.056 359.750 C 673.087 360.163, 676.549 363.200, 680.750 366.500 C 689.114 373.072, 691.746 376.830, 698.609 392 C 705.234 406.643, 708.076 418.240, 708.719 433.250 C 709.020 440.262, 709.601 446, 710.010 446 C 710.420 446, 711.320 445.319, 712.010 444.488 C 712.959 443.344, 713.596 443.250, 714.621 444.100 C 716.823 445.928, 717.354 442.780, 716.634 432.154 C 714.973 407.625, 705.945 382.867, 694.518 371.500 C 687.182 364.203, 672.799 356.329, 673.056 359.750 M 701.014 360.391 C 700.980 362.570, 708.701 371.124, 711.672 372.198 C 714.116 373.082, 715.385 374.493, 716.834 377.935 C 725.600 398.772, 729.084 426.831, 725.542 448.066 C 723.910 457.847, 719.980 472.222, 717.819 476.315 C 717.099 477.678, 716.534 477.858, 715.545 477.037 C 713.272 475.151, 710.234 481.647, 711.345 486.018 C 712.138 489.137, 711.613 490.916, 706.714 501.706 C 695.740 525.878, 676.664 556.246, 659.732 576.500 C 651.766 586.028, 630.355 607.578, 623.298 613.170 C 620.987 615.002, 614.012 620.825, 607.798 626.111 C 601.584 631.397, 589.075 640.800, 580 647.007 C 559.812 660.815, 530.184 682.854, 523.750 688.848 C 519.373 692.926, 517.526 697, 520.055 697 C 521.502 697, 531.186 690.397, 545.500 679.650 C 552.100 674.694, 566.275 664.360, 577 656.685 C 629.130 619.380, 668.508 579.800, 692.532 540.561 C 714.778 504.226, 727.684 470.566, 730.980 440.287 C 733.045 421.318, 728.897 397.602, 720.490 380.321 C 716.645 372.417, 715.591 371, 713.561 371 C 711.899 371, 709.613 369.238, 706.097 365.250 C 703.309 362.087, 701.022 359.901, 701.014 360.391 M 393.500 369.698 C 382.896 371.104, 369.637 377.225, 361.191 384.615 C 355.207 389.848, 348.593 399.068, 346.437 405.178 C 344.114 411.763, 345.534 410.766, 349.069 403.328 C 355.725 389.329, 371.159 377.531, 388.015 373.558 C 396.265 371.614, 418.144 371.535, 427.026 373.418 C 444.917 377.211, 461.633 388.399, 477.950 407.500 L 482.221 412.500 478.951 407.500 C 474.381 400.514, 457.557 384.143, 450.970 380.272 C 436.465 371.750, 411.987 367.246, 393.500 369.698 M 580.605 370.099 C 557.307 372.555, 539.731 380.914, 521.422 398.246 C 511.523 407.616, 508.751 411.188, 509.621 413.455 C 510.105 414.717, 512.565 412.738, 520.385 404.795 C 540.903 383.955, 554.237 376.859, 578.497 373.872 C 592.181 372.187, 611.115 374.004, 618.341 377.694 C 620.889 378.996, 621.379 378.967, 623.091 377.418 C 624.141 376.467, 625 375.364, 625 374.967 C 625 373.692, 611.945 370.912, 601.562 369.975 C 590.348 368.963, 591.430 368.957, 580.605 370.099 M 484.553 371.915 C 484.231 372.436, 484.394 373.125, 484.915 373.447 C 485.436 373.769, 486.125 373.606, 486.447 373.085 C 486.769 372.564, 486.606 371.875, 486.085 371.553 C 485.564 371.231, 484.875 371.394, 484.553 371.915 M 647.620 378.594 C 642.593 384.303, 643.356 384.251, 649 378.500 C 651.429 376.025, 652.985 374.042, 652.458 374.094 C 651.931 374.146, 649.754 376.171, 647.620 378.594 M 608.500 380.688 C 601.842 384.258, 593.262 392.072, 584.436 402.602 L 575.129 413.707 569.639 414.273 C 559.083 415.363, 550.675 420.761, 546.403 429.191 C 545.029 431.903, 541.293 440.957, 538.102 449.311 C 534.911 457.665, 531.332 466.395, 530.150 468.710 C 527.435 474.027, 527.391 475.412, 530.060 471.500 C 532.950 467.265, 539.387 454.501, 545.551 440.784 C 548.446 434.340, 551.795 427.692, 552.992 426.011 C 556.207 421.496, 562.403 418.670, 569.500 418.481 L 575.500 418.322 581.823 410.411 C 593.392 395.939, 599.965 389.152, 606.514 384.916 C 610.081 382.609, 613 380.334, 613 379.861 C 613 378.647, 611.947 378.841, 608.500 380.688 M 305.500 385.765 C 302.395 388.047, 296.894 402.132, 293.319 416.956 C 291.465 424.647, 290.739 430.520, 290.638 438.660 C 290.562 444.798, 290.725 450.022, 291 450.268 C 291.275 450.515, 293.227 450.984, 295.338 451.310 C 298.489 451.797, 299.073 451.634, 298.600 450.401 C 297.708 448.076, 300.789 428.050, 303.986 415.392 C 305.568 409.125, 308.498 400.286, 310.495 395.749 C 312.493 391.212, 314.372 386.938, 314.671 386.250 C 315.059 385.357, 313.970 385.004, 310.857 385.015 C 308.461 385.024, 306.050 385.361, 305.500 385.765 M 496 386.500 C 496 387.325, 496.450 388, 497 388 C 497.550 388, 498 387.325, 498 386.500 C 498 385.675, 497.550 385, 497 385 C 496.450 385, 496 385.675, 496 386.500 M 669 388.480 C 669 388.744, 670.766 393.393, 672.925 398.811 C 678.945 413.921, 680.075 419.130, 680.699 434.623 C 681.343 450.622, 680.158 461.161, 676.331 473.476 C 673.380 482.975, 664.428 504.380, 661.828 508.154 C 660.823 509.614, 660 511.095, 660 511.445 C 660 511.795, 659.047 513.370, 657.882 514.945 C 655.353 518.367, 656.059 520, 660.068 520 C 662.530 520, 663.578 519.132, 666.404 514.750 C 668.449 511.579, 669.450 509.082, 668.933 508.443 C 668.398 507.783, 669.127 506.765, 670.874 505.734 C 674.911 503.349, 678.563 497.581, 682.001 488.159 C 692.353 459.794, 689.350 417.929, 675.337 395.250 C 672.874 391.262, 670.440 388, 669.929 388 C 669.418 388, 669 388.216, 669 388.480 M 216.637 401.750 C 212.619 419.559, 212.217 441.861, 215.542 462.500 C 216.340 467.450, 216.994 471.823, 216.996 472.219 C 216.998 472.614, 217.634 472.694, 218.410 472.396 C 219.266 472.068, 220.087 472.698, 220.501 474.003 C 220.876 475.184, 221.368 475.966, 221.594 475.739 C 221.820 475.513, 221.103 472.706, 220.001 469.502 C 218.623 465.497, 217.829 459.896, 217.460 451.588 C 217.166 444.939, 216.583 435.738, 216.166 431.140 C 215.463 423.393, 216.503 408.889, 218.488 398.750 C 219.769 392.209, 218.226 394.710, 216.637 401.750 M 257.048 400.181 C 253.655 415.910, 252.085 447.987, 253.925 464 C 255.697 479.422, 259.037 493.297, 260.600 491.733 C 260.841 491.492, 260.050 484.816, 258.843 476.898 C 257.004 464.840, 256.644 458.193, 256.631 436 C 256.622 420.703, 257.100 406.557, 257.762 402.538 C 259.133 394.220, 258.666 392.680, 257.048 400.181 M 343.581 413.107 C 340.904 421.114, 339.931 424.734, 338.965 430.280 C 337.989 435.884, 337.578 436.702, 335.950 436.277 C 334.914 436.006, 333.546 435.157, 332.910 434.392 C 330.933 432.009, 330 432.845, 330 437 C 330 439.889, 330.417 441, 331.500 441 C 333.498 441, 333.417 442.626, 331.380 443.408 C 329.968 443.949, 329.826 445.604, 330.275 456.265 C 330.913 471.397, 331.934 475.047, 336.037 476.859 C 337.730 477.607, 339.402 477.931, 339.754 477.580 C 340.302 477.032, 339.424 469.693, 337.322 457.250 C 337.010 455.405, 337.200 454, 337.762 454 C 338.305 454, 339.096 455.462, 339.520 457.250 C 340.066 459.556, 340.653 455.274, 341.543 442.500 C 342.233 432.600, 343.292 421.836, 343.896 418.581 C 344.900 413.172, 344.703 409.752, 343.581 413.107 M 640.113 418.130 C 638.805 421.502, 634.420 429.212, 630.368 435.263 C 626.316 441.314, 623 446.826, 623 447.510 C 623 448.195, 622.325 449.315, 621.500 450 C 620.001 451.244, 619.393 458.059, 620.667 459.334 C 621.712 460.379, 622.474 470.513, 622.371 482 C 622.259 494.370, 620.045 503.537, 614.020 516.579 C 611.809 521.364, 610 525.537, 610 525.852 C 610 527.223, 620.686 515.811, 626.248 508.500 C 633.002 499.623, 643.225 479.298, 647.625 466 C 650.283 457.968, 650.440 456.508, 650.469 439.500 C 650.502 420.109, 649.783 416.398, 645.434 413.549 C 644.134 412.697, 642.940 412, 642.780 412 C 642.620 412, 641.420 414.759, 640.113 418.130 M 499 435 C 499 438.473, 499.219 438.558, 502.553 436.374 C 504.497 435.099, 504.788 434.449, 503.895 433.374 C 503.268 432.618, 501.910 432, 500.878 432 C 499.458 432, 499 432.732, 499 435 M 280.570 456.887 C 279.562 458.518, 282.448 459.751, 288.366 460.220 C 294.216 460.683, 294.226 460.679, 291.866 458.850 C 290.323 457.654, 288.577 457.208, 286.845 457.567 C 285.385 457.869, 283.896 457.641, 283.536 457.059 C 282.739 455.769, 281.312 455.686, 280.570 456.887 M 716.079 466.583 C 716.127 467.748, 716.364 467.985, 716.683 467.188 C 716.972 466.466, 716.936 465.603, 716.604 465.271 C 716.272 464.939, 716.036 465.529, 716.079 466.583 M 459.816 471.504 C 459.189 472.882, 458.861 474.150, 459.088 474.324 C 460.391 475.319, 467 478.875, 467 478.581 C 467 477.001, 464.212 473.429, 463.233 473.756 C 462.555 473.982, 462 473.679, 462 473.083 C 462 472.488, 462.450 472, 463 472 C 463.550 472, 464 471.325, 464 470.500 C 464 468.075, 461.057 468.782, 459.816 471.504 M 304.084 476.500 C 304.084 477.050, 304.946 479.075, 306 481 C 307.054 482.925, 307.916 484.050, 307.916 483.500 C 307.916 482.950, 307.054 480.925, 306 479 C 304.946 477.075, 304.084 475.950, 304.084 476.500 M 701 481.059 C 701 481.641, 701.450 481.840, 702 481.500 C 702.550 481.160, 703 480.684, 703 480.441 C 703 480.198, 702.550 480, 702 480 C 701.450 480, 701 480.477, 701 481.059 M 713.731 483.920 C 713.296 485.583, 713.426 485.974, 714.168 485.232 C 714.750 484.650, 715.028 483.585, 714.788 482.863 C 714.538 482.114, 714.085 482.568, 713.731 483.920 M 803.441 483.468 C 801.652 484.821, 801.901 484.939, 806.628 484.968 C 812.521 485.005, 814.560 486.631, 813.585 490.516 C 813.185 492.109, 811.620 493.690, 809.390 494.754 C 806.180 496.284, 805.746 496.297, 804.956 494.885 C 804.474 494.024, 803.177 492.235, 802.073 490.910 L 800.067 488.500 800.033 492.782 C 800.015 495.137, 800.708 498.737, 801.573 500.782 L 803.147 504.500 804.823 501.361 C 805.746 499.634, 808.525 496.690, 811 494.819 C 816.035 491.011, 817.419 486.562, 814.483 483.625 C 812.449 481.592, 806.042 481.501, 803.441 483.468 M 697.201 493.489 C 695.387 498.995, 692.376 506.624, 690.511 510.443 C 688.646 514.262, 687.336 517.735, 687.600 518.161 C 688.378 519.421, 684.067 528, 682.655 528 C 681.943 528, 678.711 531.901, 675.473 536.668 C 668.263 547.282, 648.127 572.282, 636.843 584.629 C 620.902 602.071, 602.207 618.611, 577.500 637.132 C 548.090 659.177, 523.496 675.713, 514.668 679.376 C 509.706 681.435, 507.572 680.387, 498.731 671.546 C 492.326 665.140, 489.423 663.809, 486.253 665.822 C 484.891 666.687, 488.277 670.256, 495.432 675.498 C 497.594 677.083, 498.843 678.552, 498.207 678.764 C 497.572 678.976, 492.652 676.101, 487.276 672.376 C 481.899 668.650, 473.225 662.796, 468 659.367 C 456.222 651.637, 446.987 645.223, 440.610 640.343 L 435.720 636.601 438.017 640.051 C 443.009 647.546, 467.269 666.599, 489.691 680.633 C 495.644 684.359, 497.225 684.950, 498.875 684.067 C 502.358 682.203, 505.594 682.901, 510.109 686.490 C 512.524 688.410, 514.950 689.970, 515.500 689.957 C 516.050 689.943, 520.325 686.756, 525 682.874 C 529.675 678.992, 542.050 669.391, 552.500 661.537 C 570.488 648.020, 586.199 635.435, 605.117 619.391 C 615.119 610.909, 617.244 609.644, 618.830 611.230 C 619.455 611.855, 620.299 612.035, 620.704 611.629 C 621.110 611.223, 620.837 610.517, 620.097 610.060 C 619.112 609.451, 622.476 605.513, 632.649 595.364 C 646.595 581.451, 664.259 561.137, 672.399 549.652 C 688.413 527.053, 701.814 497.432, 700.816 486.837 C 700.546 483.971, 700.015 484.949, 697.201 493.489 M 196 487.752 C 193.875 488.813, 191.777 490.980, 190.660 493.266 C 189.020 496.623, 188.965 497.488, 190.160 501.236 C 193.613 512.070, 209.916 513.151, 212.534 502.720 C 213.939 497.121, 209.712 488.982, 204.339 486.939 C 200.950 485.650, 200.026 485.741, 196 487.752 M 196.745 491.750 C 194.190 494.608, 194.111 498.969, 196.571 501.429 C 198.204 503.061, 203.621 503.528, 205.687 502.214 C 209.267 499.938, 209.136 492.034, 205.495 490.636 C 202.434 489.462, 198.323 489.985, 196.745 491.750 M 588.099 502.557 C 586.944 504.514, 586 506.347, 586 506.632 C 586 506.917, 583.975 510.280, 581.500 514.106 C 576.569 521.728, 575.512 524.381, 579.572 518.944 C 583.992 513.025, 591.731 499, 590.577 499 C 590.368 499, 589.253 500.601, 588.099 502.557 M 284 507.941 C 284 510.744, 284.431 512, 285.393 512 C 286.159 512, 287.036 512.652, 287.342 513.449 C 287.727 514.453, 287.418 514.714, 286.333 514.297 C 285.043 513.803, 284.955 514.047, 285.829 515.681 C 286.413 516.772, 287.649 518.294, 288.575 519.063 C 290.110 520.336, 290.199 520.184, 289.577 517.352 C 289.046 514.935, 289.459 513.412, 291.433 510.503 C 294.495 505.992, 293.665 503.428, 290.449 507.461 C 288.107 510.398, 286 510.180, 286 507 C 286 505.965, 285.550 504.840, 285 504.500 C 284.396 504.127, 284 505.490, 284 507.941 M 231.033 508.500 C 231.019 512.918, 235.007 529.403, 237.039 533.322 C 243.773 546.312, 267.107 578.832, 285.924 601.453 C 295.566 613.044, 346.307 666.374, 357.089 676.250 C 358.140 677.212, 359 678.459, 359 679.019 C 359 681.915, 307.184 737.790, 266.090 779.207 C 240.553 804.944, 239.531 806.124, 237.939 811.707 C 236.102 818.149, 227.854 832.878, 221.884 840.381 C 219.748 843.065, 218 845.024, 218 844.735 C 218 844.445, 220.728 839.869, 224.061 834.565 C 231.011 823.507, 236.010 813.407, 235.972 810.500 C 235.930 807.284, 231.082 813.642, 221.864 829 C 217.407 836.425, 211.261 846.209, 208.205 850.741 C 205.150 855.274, 202.850 859.184, 203.096 859.429 C 203.342 859.675, 208.033 856.629, 213.521 852.660 C 219.010 848.691, 227.550 843.274, 232.500 840.623 C 237.450 837.971, 251.625 829.123, 264 820.960 C 288.473 804.817, 283.669 807.031, 325 792.837 C 342.456 786.843, 348.151 784.278, 339.871 786.142 C 316.588 791.382, 280.359 798.907, 275.784 799.453 C 270.446 800.090, 270.148 800.264, 271.277 802.071 C 272.150 803.470, 272.190 804.492, 271.419 805.753 C 270.833 806.714, 261.115 814.475, 249.822 823 C 238.530 831.525, 227.563 839.950, 225.451 841.722 C 223.339 843.495, 221.387 844.720, 221.113 844.446 C 220.301 843.634, 231.661 832.511, 244 822.037 C 256.027 811.827, 266 801.865, 266 800.061 C 266 799.479, 281.413 783.362, 300.250 764.247 C 319.087 745.131, 340.055 723.550, 346.844 716.289 C 353.633 709.028, 361.128 701.497, 363.499 699.554 L 367.811 696.021 371.011 699.010 C 372.771 700.655, 374.535 702, 374.931 702 C 376.385 702, 380.189 697.115, 379.546 696.074 C 379.181 695.483, 376.771 694.964, 374.191 694.921 C 371.611 694.878, 370.063 694.615, 370.750 694.338 C 371.438 694.060, 372.011 693.308, 372.025 692.667 C 372.060 691.031, 378.809 682, 379.997 682 C 380.535 682, 382.050 683.688, 383.363 685.750 C 386.595 690.824, 390.612 695, 392.261 695 C 393.007 695, 394.466 694.380, 395.503 693.621 C 397.305 692.304, 397.312 692.125, 395.658 689.601 C 394.126 687.262, 388.223 682.391, 384 679.980 C 382.825 679.309, 385.042 676.565, 394.237 667.312 C 400.692 660.815, 406.680 654.487, 407.543 653.250 C 409.785 650.038, 411.289 650.408, 410.505 653.979 C 409.940 656.550, 410.443 657.579, 414.175 661.489 C 416.554 663.981, 423.225 669.292, 429 673.291 L 439.500 680.562 439.803 686.382 C 439.988 689.945, 439.719 692.066, 439.108 691.851 C 437.754 691.374, 417.672 673.673, 411.632 667.631 C 407.896 663.894, 406.563 663.081, 405.898 664.131 C 405.421 664.884, 405.024 665.780, 405.015 666.123 C 404.988 667.224, 413.175 674.271, 426.136 684.302 L 438.772 694.081 439.183 700.530 C 439.831 710.717, 441.481 712.127, 465.766 723.254 C 470.272 725.319, 474.638 728.045, 475.468 729.311 C 476.298 730.578, 477.638 735.401, 478.446 740.029 C 479.896 748.333, 486.031 763, 488.055 763 C 490.881 763, 485.744 731.875, 481.743 724.757 C 479.017 719.906, 475.598 717.798, 463.369 713.428 C 452.703 709.617, 447.418 706.216, 445.647 702.026 C 444.418 699.116, 444.652 685, 445.930 685 C 446.352 685, 447.502 686.787, 448.487 688.970 C 449.471 691.154, 451.115 693.699, 452.139 694.625 C 453.162 695.552, 454 697.140, 454 698.155 C 454 699.170, 454.603 700, 455.339 700 C 456.076 700, 457.192 701.125, 457.818 702.500 C 458.445 703.875, 459.754 705.069, 460.729 705.152 C 462.522 705.307, 464.088 705.606, 465 705.968 C 465.275 706.077, 466.400 706.343, 467.500 706.558 C 468.600 706.773, 470.977 707.238, 472.782 707.592 C 475.986 708.221, 476.038 708.177, 474.928 705.742 C 474.008 703.722, 474.117 702.752, 475.501 700.639 C 477.179 698.077, 477.162 698.012, 474.540 697.015 C 473.071 696.457, 471.310 696, 470.626 696 C 468.686 696, 458.761 689.737, 451.807 684.125 C 448.338 681.325, 439.403 674.124, 431.951 668.123 C 424.500 662.122, 417.300 655.592, 415.951 653.612 C 414.603 651.633, 412.938 650.011, 412.250 650.007 C 411.563 650.003, 410.993 649.663, 410.985 649.250 C 410.976 648.837, 410.587 647.897, 410.120 647.160 C 409.430 646.071, 408.546 646.188, 405.386 647.788 C 403.249 648.871, 397.093 651.400, 391.707 653.410 C 382.253 656.938, 378.662 657.317, 380.964 654.543 C 381.767 653.576, 380.623 652.074, 376.273 648.382 C 357.749 632.659, 334.197 608.505, 318.877 589.519 C 310.030 578.554, 310.020 578.536, 312.009 576.547 C 313.997 574.558, 314.002 574.558, 315.404 576.560 C 325.075 590.366, 354.655 623.487, 364.577 631.617 C 373.499 638.928, 369.984 633.751, 356.722 620.047 C 342.913 605.780, 326.965 587.748, 319.713 578.202 L 315.687 572.904 319.547 568.952 C 321.669 566.778, 323.652 565.010, 323.953 565.021 C 324.254 565.033, 325.701 566.721, 327.169 568.771 C 328.637 570.822, 333.084 576.100, 337.052 580.500 C 341.019 584.900, 348.108 593, 352.806 598.500 C 357.503 604, 369.205 616.453, 378.810 626.173 C 391.105 638.615, 396.094 644.312, 395.668 645.423 C 395.118 646.857, 395.402 646.859, 398.781 645.448 C 403.108 643.642, 405.743 641.400, 402.330 642.430 C 400.610 642.948, 398.709 641.777, 393.175 636.792 C 382.447 627.128, 363.101 606.188, 344.805 584.437 C 340.612 579.452, 334.679 572.727, 331.620 569.493 C 327.214 564.833, 326.179 563.133, 326.638 561.306 C 327.320 558.587, 325.427 558.210, 322.441 560.468 C 319.818 562.452, 318.750 562.364, 319.430 560.220 C 319.814 559.012, 318.523 556.843, 315.411 553.470 L 310.828 548.500 314.569 554 L 318.310 559.500 313.686 554.500 C 310 550.514, 309.166 548.974, 309.575 546.909 C 310.309 543.207, 308.161 541.699, 304.148 543.098 C 302.417 543.702, 301 544.677, 301 545.266 C 301 545.855, 305.247 550.535, 310.437 555.667 L 319.873 564.997 317.346 568.001 C 315.955 569.653, 314.396 570.745, 313.882 570.427 C 311.385 568.884, 302.806 555.048, 301.276 550.097 C 300.325 547.019, 296.450 539.775, 292.666 534 C 288.882 528.225, 283.982 520.215, 281.776 516.201 C 279.570 512.186, 277.541 509.126, 277.267 509.400 C 276.660 510.007, 287.139 529.835, 291.208 535.780 C 292.819 538.135, 296.066 544.503, 298.422 549.931 C 300.779 555.360, 304.798 562.793, 307.353 566.449 C 309.909 570.105, 312 573.387, 312 573.743 C 312 574.099, 310.822 575.620, 309.382 577.123 L 306.764 579.855 315.132 590.299 C 327.850 606.171, 344.200 623.946, 362.458 641.750 L 378.953 657.834 375.727 660.695 C 373.952 662.268, 371.878 664.750, 371.117 666.211 C 370.356 667.671, 368.248 670.306, 366.431 672.067 L 363.129 675.268 350.316 663.384 C 318.744 634.100, 292.944 604.677, 264.913 565.987 C 248.133 542.826, 241.262 531.484, 235.540 517.500 C 233.065 511.450, 231.036 507.400, 231.033 508.500 M 304.573 509.570 C 302.320 511.822, 301.530 515.917, 302.733 519.104 C 303.304 520.617, 306.185 525.247, 309.136 529.393 C 313.837 535.999, 314.814 536.869, 317.037 536.433 C 319.201 536.008, 319.756 536.437, 320.808 539.345 C 322.313 543.508, 329.509 553.131, 338.127 562.509 C 349.348 574.717, 396.290 620.262, 404.044 626.464 C 408.145 629.743, 414.650 635.447, 418.500 639.139 C 438.083 657.915, 489.175 697, 494.137 697 C 495.284 697, 496.213 696.001, 496.637 694.311 C 497.403 691.259, 498.144 691.933, 484 682.829 C 475.278 677.215, 455.236 662.803, 426 641.121 C 419.675 636.430, 412.015 630.077, 408.977 627.002 C 405.939 623.928, 398.964 617.400, 393.477 612.495 C 365.077 587.109, 334.657 555.848, 326.717 543.889 C 323.573 539.152, 321 534.990, 321 534.639 C 321 534.287, 321.675 534, 322.500 534 C 324.168 534, 324.374 533.138, 323.161 531.226 C 322.544 530.253, 321.920 530.431, 320.521 531.976 C 317.359 535.471, 315.448 534.454, 310.072 526.416 C 304.547 518.155, 303.744 514.256, 306.917 511.083 C 308.700 509.300, 308.695 508, 306.905 508 C 306.486 508, 305.436 508.706, 304.573 509.570 M 786.332 510.250 C 788.141 517.457, 790.640 522.974, 792.101 522.987 C 794.669 523.008, 800 520.891, 800 519.850 C 800 519.325, 798.669 518.432, 797.042 517.865 C 794.416 516.949, 794.152 516.492, 794.690 513.802 C 795.240 511.051, 795.098 510.834, 793.148 511.453 C 791.424 512, 791 511.727, 791 510.067 C 791 508.504, 790.362 508, 788.383 508 C 786.169 508, 785.854 508.346, 786.332 510.250 M 317.670 513.356 C 318.191 516.566, 318.045 516.954, 316.533 516.374 C 313.513 515.215, 315.167 518.996, 318.939 521.875 C 321.950 524.173, 322.276 524.251, 321.555 522.500 C 321.102 521.400, 320.410 518.566, 320.017 516.201 C 319.624 513.837, 318.801 511.401, 318.187 510.787 C 317.368 509.968, 317.231 510.648, 317.670 513.356 M 653.459 515.067 C 653.096 515.653, 653.040 516.373, 653.333 516.667 C 654.050 517.383, 656 516.121, 656 514.941 C 656 513.663, 654.274 513.748, 653.459 515.067 M 789 514.819 C 789 516.027, 790.897 517.436, 791.591 516.743 C 791.842 516.491, 791.362 515.716, 790.524 515.020 C 789.574 514.231, 789 514.155, 789 514.819 M 651.687 525.380 C 649.827 527.239, 648.026 529.490, 647.684 530.380 C 647.342 531.271, 646.599 532, 646.031 532 C 645.464 532, 645 532.900, 645 534 C 645 536.205, 643.422 536.726, 642.727 534.750 C 642.416 533.868, 641.327 534.197, 639.025 535.867 C 636.972 537.358, 635.523 537.847, 635.115 537.187 C 634.697 536.510, 633.624 536.775, 632.090 537.932 C 629.206 540.108, 630.174 542.391, 633.696 541.718 C 635.179 541.434, 636.358 541.770, 636.662 542.562 C 636.940 543.286, 638.528 544.177, 640.191 544.542 C 642.824 545.120, 643.794 544.643, 647.702 540.853 C 650.170 538.459, 653.934 533.956, 656.067 530.846 L 659.943 525.193 657.506 523.596 C 655.161 522.060, 654.939 522.128, 651.687 525.380 M 314.508 544.750 C 315.788 546.263, 318.048 548.850, 319.531 550.500 C 322.187 553.454, 322.203 553.458, 320.591 550.750 C 319.691 549.237, 319.220 548, 319.545 548 C 319.870 548, 319.175 546.650, 318 545 C 316.825 543.350, 315.035 542, 314.022 542 C 312.351 542, 312.396 542.255, 314.508 544.750 M 622.612 547.876 C 621.030 549.624, 621.028 549.797, 622.584 550.394 C 624.300 551.052, 627.248 548.210, 626.352 546.761 C 625.590 545.528, 624.422 545.876, 622.612 547.876 M 342.032 551.559 C 342.049 552.076, 342.724 553.374, 343.532 554.441 C 344.339 555.509, 344.986 555.959, 344.968 555.441 C 344.951 554.924, 344.276 553.626, 343.468 552.559 C 342.661 551.491, 342.014 551.041, 342.032 551.559 M 631.087 555.609 C 629.760 556.929, 628.893 558.226, 629.160 558.494 C 629.427 558.761, 630.935 557.634, 632.510 555.990 C 635.892 552.459, 634.603 552.115, 631.087 555.609 M 477.813 554.683 C 478.534 554.972, 479.397 554.936, 479.729 554.604 C 480.061 554.272, 479.471 554.036, 478.417 554.079 C 477.252 554.127, 477.015 554.364, 477.813 554.683 M 626.596 559.737 C 626.191 560.143, 625.110 560.480, 624.196 560.487 C 623.281 560.494, 622.380 561.288, 622.193 562.250 C 621.731 564.628, 624.257 564.478, 626.506 561.994 C 628.180 560.144, 628.263 558.070, 626.596 559.737 M 379.177 571.671 C 379.355 572.586, 380.063 573.522, 380.750 573.750 C 382.589 574.363, 382.276 571.320, 380.427 570.610 C 379.331 570.190, 378.952 570.511, 379.177 571.671 M 686.397 591.728 C 679.303 600.378, 669.450 611.689, 664.500 616.863 C 649.207 632.849, 615.597 661.462, 591.937 678.639 C 585.225 683.513, 576.307 690, 572.121 693.055 C 566.873 696.885, 564.239 699.525, 563.639 701.555 C 560.764 711.290, 561.469 710.729, 543.500 717.593 C 526.700 724.011, 524.637 725.868, 521.932 737 C 520.352 743.506, 520.200 757.600, 521.695 759.095 C 522.766 760.166, 525.069 752.866, 528.576 737.290 C 529.469 733.324, 530.717 729.688, 531.349 729.209 C 531.982 728.730, 535.350 727.324, 538.833 726.085 C 551.373 721.624, 561.449 716.392, 564.759 712.622 C 567.473 709.530, 568 708.132, 568 704.016 C 568 698.262, 567.882 698.372, 586 687.238 C 597.417 680.222, 608.445 671.370, 635.679 647.361 C 654.893 630.422, 671.814 612.424, 689.135 590.500 C 704.996 570.425, 703.207 571.227, 686.397 591.728 M 367.736 581.500 C 375.563 592.402, 410.556 623.777, 412.604 621.729 C 413.625 620.709, 412.374 619.452, 394.701 603.738 C 370.748 582.440, 365.017 577.713, 367.736 581.500 M 614.872 594.750 C 613.629 596.336, 613.664 596.371, 615.250 595.128 C 616.916 593.821, 617.445 593, 616.622 593 C 616.415 593, 615.627 593.788, 614.872 594.750 M 604.398 604.116 C 586.046 620.388, 562.571 637.818, 538.617 652.960 C 530.796 657.904, 523.454 662.973, 522.303 664.225 C 519.305 667.484, 515.809 674.436, 516.973 674.824 C 519.901 675.800, 565.049 642.733, 583.500 626.098 C 590.738 619.571, 608.958 601.974, 610.872 599.659 C 613.487 596.498, 611.265 598.028, 604.398 604.116 M 426.190 630.160 C 426.979 631.348, 428.721 632.465, 430.062 632.643 C 432.442 632.959, 432.429 632.907, 429.500 630.488 C 425.801 627.432, 424.279 627.281, 426.190 630.160 M 378.516 639.975 C 378.173 640.528, 379.805 642.747, 382.141 644.904 C 385.863 648.341, 386.220 649.030, 385.026 650.468 C 383.786 651.963, 383.905 652, 386.358 650.883 C 389.545 649.431, 389.533 649.377, 384.877 644.258 C 380.497 639.443, 379.330 638.657, 378.516 639.975 M 322 659.370 C 322 660.725, 322.563 662.079, 323.250 662.378 C 324.108 662.752, 323.794 663.444, 322.250 664.584 C 321.012 665.497, 320 666.586, 320 667.005 C 320 667.833, 328.017 665.330, 329.268 664.112 C 329.691 663.700, 328.228 661.911, 326.018 660.135 L 322 656.906 322 659.370 M 386.319 661.265 C 384.490 662.300, 367.111 681.114, 351.514 698.943 C 338.638 713.661, 305.485 748.419, 279.250 774.705 C 262.613 791.375, 249 805.461, 249 806.007 C 249 806.553, 249.369 807, 249.820 807 C 251.927 807, 273.445 786.321, 304.012 754.923 C 335.893 722.175, 349.683 707.306, 374.426 679 C 380.436 672.125, 386.712 665.038, 388.373 663.250 C 391.510 659.874, 390.500 658.897, 386.319 661.265 M 584.861 669.759 C 576.809 675.117, 566.459 681.667, 561.861 684.316 C 557.262 686.964, 550.800 691.624, 547.500 694.671 C 541.996 699.754, 541.748 700.156, 544.500 699.545 C 549.468 698.441, 559.603 691.867, 576.940 678.504 C 594.894 664.665, 600.711 659.995, 599.978 660.009 C 599.715 660.014, 592.912 664.401, 584.861 669.759 M 505 670.549 C 505 672.153, 512.801 676.241, 514.206 675.373 C 515.714 674.441, 514.994 671.067, 513.066 670.035 C 510.026 668.408, 505 668.728, 505 670.549 M 396.655 675.750 C 397.510 677.813, 398.565 679.950, 399.001 680.500 C 399.437 681.050, 400.361 683.413, 401.055 685.750 C 402.420 690.348, 403.083 690.810, 405 688.500 C 406.778 686.357, 408.780 686.637, 412.190 689.507 C 415.148 691.995, 417.724 692.043, 416.262 689.583 C 415.136 687.687, 397.067 672, 396.008 672 C 395.510 672, 395.801 673.688, 396.655 675.750 M 402.952 697.094 C 400.773 698.536, 408.862 705.545, 425 716.198 C 444.370 728.984, 451.585 732.368, 460.399 732.799 L 467.500 733.146 453.500 726.230 C 440.549 719.833, 418.251 706.407, 410 700.037 C 405.046 696.213, 404.578 696.017, 402.952 697.094 M 458.500 701 C 458.160 701.550, 458.584 702, 459.441 702 C 460.298 702, 461 701.550, 461 701 C 461 700.450, 460.577 700, 460.059 700 C 459.541 700, 458.840 700.450, 458.500 701 M 481 702.565 C 481 703.976, 482.976 708.876, 485.391 713.454 C 489.923 722.045, 490.578 724.763, 493.079 745.308 C 493.927 752.278, 494.827 755.749, 496.189 757.308 C 497.994 759.373, 498.077 759.384, 497.612 757.500 C 497.341 756.400, 496.617 748.525, 496.005 740 C 493.459 704.579, 493.409 704.378, 486.282 701.362 C 481.782 699.457, 481 699.635, 481 702.565 M 510.170 703.750 C 509.067 705.896, 509.713 708, 511.476 708 C 512.834 708, 514 705.882, 514 703.418 C 514 701.415, 511.249 701.653, 510.170 703.750 M 605.660 721.131 C 600.549 724.102, 600.688 732.800, 605.881 734.951 C 611.180 737.146, 616.400 733.338, 616.400 727.278 C 616.400 721.543, 610.631 718.241, 605.660 721.131 M 398.200 722.200 C 396.279 724.121, 396.752 725.352, 401 729.500 L 405 733.406 405 728.703 C 405 724.667, 404.716 724, 403 724 C 401.889 724, 401 723.333, 401 722.500 C 401 720.692, 399.833 720.567, 398.200 722.200 M 607.238 725.162 C 605.241 727.159, 605.741 730.783, 608.118 731.537 C 611.132 732.494, 614.918 728.683, 613.384 726.236 C 612.027 724.072, 608.879 723.521, 607.238 725.162 M 249.778 764.689 C 241.804 775.140, 237.385 782.269, 227.724 800.265 C 221.518 811.825, 218.699 818, 219.628 818 C 222.040 818, 229.514 809.695, 233.474 802.613 C 235.543 798.913, 238.533 794.926, 240.118 793.754 C 241.703 792.583, 243 791.217, 243 790.719 C 243 790.222, 245.723 783.054, 249.051 774.792 C 252.379 766.529, 254.902 759.569, 254.657 759.323 C 254.412 759.078, 252.216 761.493, 249.778 764.689 M 481.379 785.672 C 486.517 793.503, 491.940 815.320, 498.094 852.914 C 501.077 871.137, 502 875.069, 502 869.560 C 502 868.035, 504.035 856.685, 506.522 844.337 C 511.017 822.019, 515.064 807.448, 519.648 797.073 C 522.796 789.950, 521.422 788.241, 516.414 793.052 C 509.936 799.275, 507.463 806.204, 503.943 828 C 502.744 835.425, 501.419 842.137, 500.999 842.915 C 500.236 844.329, 499.294 837.065, 498.524 823.838 C 498.039 815.503, 490.921 793.604, 486.591 787.125 C 484.671 784.253, 482.622 782.376, 481.184 782.172 L 478.868 781.844 481.379 785.672 M 542.082 788.368 C 539.427 792.663, 539.463 793, 542.566 793 C 543.977 793, 546.002 793.466, 547.066 794.035 C 548.660 794.889, 549 794.739, 549 793.184 C 549 789.960, 546.869 785, 545.484 785 C 544.757 785, 543.226 786.516, 542.082 788.368 M 447.905 787.862 C 448.376 788.763, 448.561 790.850, 448.317 792.500 C 448.065 794.202, 448.493 796.335, 449.305 797.430 C 450.699 799.309, 450.770 799.296, 451.993 796.930 C 452.684 795.594, 454.178 793.482, 455.312 792.237 C 457.814 789.490, 456.982 788.446, 451.275 787.169 C 447.513 786.327, 447.143 786.403, 447.905 787.862 M 522.079 788.583 C 522.127 789.748, 522.364 789.985, 522.683 789.188 C 522.972 788.466, 522.936 787.603, 522.604 787.271 C 522.272 786.939, 522.036 787.529, 522.079 788.583 M 451 793 C 451 793.550, 451.423 794, 451.941 794 C 452.459 794, 453.160 793.550, 453.500 793 C 453.840 792.450, 453.416 792, 452.559 792 C 451.702 792, 451 792.450, 451 793 M 539.573 808.570 C 535.186 812.956, 537.462 819, 543.500 819 C 548.859 819, 551.625 813.905, 548.965 808.934 C 547.676 806.525, 541.844 806.299, 539.573 808.570 M 542.152 809.885 C 539.923 811.297, 541.206 814.500, 544 814.500 C 545.625 814.500, 546.597 813.855, 546.835 812.620 C 547.146 811.002, 545.589 809.031, 544 809.031 C 543.725 809.031, 542.893 809.415, 542.152 809.885 M 299.500 847.897 C 274.715 856.277, 254.563 864.039, 232.500 873.700 C 211.998 882.678, 177.823 899.156, 178.435 899.768 C 178.995 900.328, 206.508 891.209, 223.500 884.831 C 252.502 873.945, 325.555 841.220, 321 841.155 C 320.175 841.143, 310.500 844.177, 299.500 847.897" stroke="none" fill="black" fill-rule="evenodd"/>
</svg>